<svg width="747" height="1100" viewBox="0 0 747 1100" fill="none" xmlns="http://www.w3.org/2000/svg">
<path d="M745.852 333.833C740.541 322.098 720.735 327.426 712.072 317.893C710.132 315.759 708.948 313.038 707.09 310.833C706.299 309.894 705.418 309.083 704.466 308.389C701.548 302.036 697.867 296.024 693.517 290.552C712.68 286.906 727.171 270.075 727.171 249.85C727.171 226.961 708.616 208.407 685.728 208.407C664.834 208.407 647.559 223.872 644.706 243.978C637.281 235.16 630.46 225.779 623.685 216.444C607.694 194.41 591.704 172.375 575.713 150.341C568.962 141.039 561.94 131.483 552.082 125.573C537.059 116.567 494.589 111.289 472.504 122.333C464.673 122.295 456.785 123.587 449.023 124.886C443.3 125.844 437.573 126.802 431.845 127.773C431.683 127.542 431.533 127.304 431.369 127.075C430.373 125.682 429.319 113.238 427.743 112.57C427.562 112.493 427.365 112.49 427.154 112.548C426.969 107.266 426.392 102.109 425.431 97.1296C425.324 96.5756 425.199 96.0296 425.082 95.4796C425.622 95.2226 426.171 94.9956 426.736 94.8146C427.015 94.7246 427.297 94.6436 427.584 94.5776C432.046 93.5546 437.009 95.7436 441.174 93.8416C446.09 91.5966 447.042 84.5076 444.413 79.7866C441.784 75.0656 436.771 72.2436 431.902 69.8986C431.722 69.8116 431.539 69.7216 431.357 69.6316C430.973 51.1186 419.106 34.3306 405.007 22.1116C393.064 11.7596 378.866 3.50856 363.286 0.851557C347.706 -1.80544 330.661 1.69055 318.903 12.2506C306.254 23.6106 300.184 42.1906 284.919 49.6766C277.331 53.3976 268.26 53.6346 260.27 50.8526C258.999 50.4096 257.753 49.8986 256.547 49.3046C251.937 47.0346 247.9 43.7276 244.618 39.7726C245.918 38.6456 247.078 37.3616 248.056 35.9406C250.295 32.6876 251.608 28.7486 251.608 24.5016C251.608 13.3436 242.563 4.29756 231.404 4.29756C227.868 4.29756 224.546 5.20856 221.655 6.80456C215.423 10.2456 211.2 16.8796 211.2 24.5016C211.2 35.6596 220.245 44.7056 231.404 44.7056C231.567 44.7056 231.727 44.6946 231.89 44.6906C230.788 53.3496 232.026 62.4156 235.152 70.6036C239.573 82.1836 247.402 92.1496 256.605 100.532C256.882 101.384 257.24 102.213 257.668 103.012C257.611 103.378 257.573 103.748 257.565 104.12C257.487 107.523 259.497 110.889 262.531 112.433C264.187 113.276 266.14 113.638 267.482 114.923C269.742 117.086 269.265 120.704 270.023 123.774C264.215 122.248 257.382 121.975 249.993 122.391C236.726 123.138 224.319 130.425 211.033 130.166C199.223 129.936 188.186 123.634 179.823 115.292C177.764 113.239 175.845 111.065 174.03 108.805C168.472 101.884 163.903 94.1406 159.388 86.4656C157.801 103.908 156.258 121.842 161.186 138.649C165.979 154.995 181.979 171.571 196.378 173.861C206.078 175.404 216.064 172.821 225.787 174.215C230.71 174.921 235.245 176.578 239.425 178.936C219.607 191.43 200.102 203.583 181.407 210.053C176.488 211.756 171.156 213.333 165.248 214.783C150.943 218.292 136.017 221.245 123.943 229.682C110.362 239.172 102.124 254.373 94.3701 269.015C84.4041 287.833 69.7731 306.656 60.5181 325.833C59.0251 328.928 57.4461 332.103 55.8071 335.346C40.0641 341.221 28.8511 356.389 28.8511 374.181C28.8511 377.934 29.3591 381.567 30.2941 385.024C15.4361 415.212 2.15709 447.378 0.439089 476.972C-0.0169107 484.823 -0.126915 492.494 0.156085 499.897C0.446085 507.476 1.25808 515.382 5.36708 521.757C10.0101 528.959 18.1001 533.067 25.9261 536.557C44.9051 545.022 64.6261 546.078 84.7851 546.505C86.0451 550.809 87.5511 554.653 89.7471 557.216C98.1261 566.995 112.267 575.672 123.13 568.756C126.127 566.848 128.45 563.92 131.677 562.435C134.653 561.066 142.21 554.009 148.375 549.722C151.947 549.476 155.487 548.952 158.962 548.032C159.566 547.872 160.164 547.696 160.761 547.513C161.973 547.763 163.19 547.993 164.409 548.199C163.407 551.738 162.415 555.28 161.446 558.829C161.139 559.952 160.837 561.085 160.537 562.221C155.959 566.287 155.592 572.685 150 577.492C142.773 583.705 134.503 586.26 131.215 593.999C130.156 596.492 129.61 599.518 129.787 603.383C130.013 608.299 131.906 613.065 134.932 616.96C132.116 619.78 129.313 622.614 126.536 625.474C123.174 628.938 119.837 632.428 116.529 635.946C90.0491 664.105 65.2501 693.927 41.1821 724.192C40.5811 724.948 39.9801 725.706 39.3801 726.464C27.2581 741.77 15.3241 757.643 7.87009 775.52C6.58009 778.614 5.42008 781.766 4.42108 784.987C1.96108 792.919 0.492087 801.317 1.63709 809.542C4.08809 827.163 18.3161 841.314 34.4591 848.789C50.6031 856.264 68.6441 858.271 86.2871 860.553C94.2961 861.589 102.292 862.703 110.278 863.884C181.242 874.377 251.311 890.35 321.059 907.349C324.399 908.163 327.735 908.988 331.074 909.806C333.009 911.959 335.284 913.663 338.101 913.992C340.061 914.221 342.068 913.729 344.009 914.084C348.64 914.93 351.129 920.041 355.216 922.377C356.697 923.223 358.288 923.653 359.932 923.799L358.825 944.689C358.389 952.913 360.678 960.499 364.812 966.72L364.542 966.819L385.151 995.959L462.993 970.247C472.729 966.694 477.742 955.922 474.189 946.186L467.836 928.775L467.481 928.906L455.931 891.341C455.617 888.635 455.297 886.004 454.977 883.473C457.482 886.176 460.48 888.366 463.788 889.931L507.097 1070.21C512.109 1091.08 533.086 1103.93 553.951 1098.92C574.815 1093.9 587.666 1072.93 582.654 1052.06L539.281 871.513C544.41 865.05 546.709 856.458 544.922 847.839L548.911 846.956L558.932 879.547C561.904 891.736 565.333 903.538 569.101 912.619L569.352 913.434C569.644 914.382 570.001 915.292 570.413 916.163L571.249 918.868C574.308 928.77 584.816 934.317 594.718 931.258L672.26 904.654L668.493 879.417C668.571 877.168 668.437 874.886 668.058 872.593L658.277 813.311C657.247 807.065 654.532 801.505 650.674 797.016C661.296 772.677 683.676 732.563 683.138 719.714C682.894 713.897 682.813 708.039 682.85 702.152C682.988 680.135 676.28 664.223 667.733 648.466C660.431 635.005 651.788 621.657 644.922 604.713C644.579 599.607 644.129 594.451 643.288 589.443C645.191 586.013 646.551 582.262 647.282 578.412C648.837 570.223 647.565 561.597 642.702 554.711C639.826 550.638 635.894 546.979 634.941 542.099C634.399 539.329 634.896 536.425 634.261 533.674C632.875 527.667 626.781 524.193 621.726 520.606C617.116 517.335 612.851 513.376 608.39 509.845C606.272 474.743 588.508 442.434 570.309 411.869L586.352 409.161C590.626 418.798 591.638 434.419 597.428 441.177C605.807 450.956 619.948 459.633 630.811 452.717C633.808 450.809 636.131 447.881 639.358 446.396C643.85 444.33 658.787 429.293 663.604 430.407C671.838 432.31 680.402 434.065 688.675 432.337C696.948 430.609 704.89 424.477 706.065 416.108C706.653 411.916 705.679 407.157 706.772 403.29C709.429 401.54 711.796 399.432 713.828 397.054C719.616 395.734 727.051 397.274 730.624 392.557C732.939 389.501 732.274 385.783 731.23 381.907C734.38 378.709 736.023 374.114 735.244 369.347L733.912 361.191C733.899 361.111 733.876 361.035 733.861 360.956C735.631 358.518 737.687 356.204 739.606 353.958C744.433 348.307 748.916 340.602 745.852 333.833ZM288.389 144.688C287.278 137 284.167 131.75 279.611 128.265C281.278 127.738 282.857 126.83 284.054 125.63C284.436 125.247 284.791 124.843 285.131 124.428C286.062 135.597 288.78 146.07 293.112 155.367C288.917 151.927 288.389 144.688 288.389 144.688ZM193.258 337.119C194.457 340.257 195.858 343.322 197.503 346.287C203.304 356.741 225.759 369.519 227.446 379.28C228.688 386.468 221.749 400.654 214.655 413.81C204.2 409.638 188.105 407.599 174.832 404.512L154.549 395.967C153.349 394.725 152.517 393.346 152.145 391.794C148.35 375.957 170.943 355.764 193.258 337.119ZM356.529 809.884C354.773 810.139 353.282 810.484 352.004 810.933C347.654 808.545 342.845 806.767 338.175 805.096C328.401 801.6 305.972 793.956 284.287 786.556C265.006 779.977 246.313 773.59 237.622 770.481C265.177 735.054 306.106 707.774 335.398 682.239L367.926 809.721C364.385 809.263 360.583 809.296 356.529 809.884ZM546.351 373.642C536.378 359.442 525.227 346.652 510.112 335.327C508.04 333.773 508.04 332.737 508.04 332.737C518.361 316.24 525.97 298.707 530.99 280.502C536.306 285.471 541.77 290.334 546.814 295.515C559.568 308.617 569.832 324.125 576.97 340.957L546.351 373.642Z" fill="#BB2F53"/>
<path d="M425.431 97.1285C423.857 97.3075 422.306 97.5155 420.88 97.9505C419.744 98.6655 418.604 99.3445 417.419 99.8425C417.31 99.9405 417.194 100.025 417.089 100.131C416.167 101.064 415.489 102.261 414.39 102.977C411.136 105.097 407.183 101.889 403.527 100.581C398.739 98.8675 393.779 100.6 388.745 102.034C386.678 103.758 384.02 104.798 381.118 104.798C378.747 104.798 376.542 104.097 374.686 102.903C371.601 102.42 368.535 101.94 365.551 102.724C363.705 103.209 362.007 104.159 360.161 104.645C353.121 106.499 345.142 101.424 338.64 104.7C336.95 105.552 335.536 106.914 333.774 107.607C331.907 108.341 329.931 108.243 327.922 107.973C325.814 109.859 323.04 111.015 319.989 111.015C318.154 111.015 316.423 110.588 314.87 109.847C311.975 112.039 309.944 115.409 309.755 119.048C309.547 123.058 311.241 127.341 309.474 130.947C308.951 132.014 308.141 132.96 307.869 134.116C307.281 136.612 309.317 138.864 310.967 140.826C313.381 143.697 315.213 147.023 316.428 150.566C320.672 147.717 323.677 144.328 323.216 141.222C322.713 137.835 320.971 134.033 323.008 131.28C324.137 129.754 326.041 129.182 327.972 128.893C328.512 128.812 329.054 128.752 329.582 128.701C330.577 128.605 331.573 128.509 332.568 128.412C332.99 126.223 334.325 123.817 335.178 122.573C337.048 119.845 339.423 117.424 340.766 114.401C341.565 112.603 341.971 110.648 342.805 108.867C343.639 107.085 345.049 105.406 346.971 104.988C348.526 104.65 350.169 105.205 351.468 106.126C352.767 107.046 353.782 108.303 354.78 109.544C357.156 112.498 359.472 115.363 362.138 118.015C364.13 119.997 365.863 122.363 366.081 125.174C366.722 125.112 367.363 125.05 368.003 124.988C370.157 124.78 372.425 124.589 374.401 125.473C378.618 127.36 379.285 132.707 381.258 137.03C381.584 137.744 381.941 138.433 382.36 139.07C387.598 147.042 387.713 146.732 395.509 141.236C400.603 137.645 406.564 134.94 411.569 131.288C414.224 129.351 416.615 127.152 418.453 124.404C422.153 118.873 425.236 113.072 427.151 112.544C426.969 107.265 426.392 102.108 425.431 97.1285Z" fill="#FECCA4"/>
<path d="M425.082 95.4785C423.633 96.1695 422.258 97.0835 420.88 97.9505C422.306 97.5145 423.857 97.3075 425.431 97.1285C425.324 96.5745 425.199 96.0285 425.082 95.4785Z" fill="#F0B689"/>
<path d="M400.842 94.0225C398.378 92.9455 395.726 92.7035 393.022 92.6545C393.024 92.7315 393.034 92.8065 393.034 92.8835C393.034 96.5615 391.365 99.8485 388.746 102.035C393.78 100.601 398.74 98.8685 403.528 100.582C407.184 101.891 411.138 105.099 414.391 102.978C415.49 102.262 416.168 101.065 417.09 100.132C417.195 100.026 417.311 99.9415 417.42 99.8435C416.264 100.33 415.065 100.646 413.781 100.639C408.87 100.609 405.342 95.9895 400.842 94.0225Z" fill="#F0B689"/>
<path d="M369.204 92.8825C369.204 91.0485 369.63 89.3195 370.37 87.7675C365.488 85.8225 360.62 84.2165 355.526 85.0905C346.818 86.5845 339.794 95.1195 331.369 95.5555C331.717 96.6755 331.905 97.8655 331.905 99.0995C331.905 102.63 330.361 105.791 327.923 107.973C329.933 108.244 331.908 108.341 333.775 107.606C335.536 106.913 336.951 105.551 338.641 104.699C345.142 101.423 353.122 106.499 360.162 104.645C362.008 104.159 363.706 103.208 365.552 102.723C368.536 101.939 371.601 102.419 374.687 102.902C371.392 100.782 369.204 97.0915 369.204 92.8825Z" fill="#F0B689"/>
<path d="M307.871 134.116C308.144 132.959 308.953 132.014 309.476 130.947C311.243 127.341 309.549 123.058 309.757 119.048C309.946 115.409 311.977 112.038 314.872 109.847C311.49 108.233 308.99 105.08 308.285 101.287C306.086 104.924 303.855 108.507 299.946 109.273C298.157 109.624 296.207 109.294 294.574 110.106C293.445 110.667 292.631 111.703 291.938 112.757C289.459 116.522 287.961 120.972 285.131 124.428C286.062 135.597 288.78 146.07 293.112 155.367C293.622 155.785 294.183 156.151 294.808 156.437C295.424 156.719 296.098 156.929 296.836 157.044C301.373 157.748 310.225 154.734 316.43 150.568C315.215 147.025 313.384 143.699 310.969 140.828C309.318 138.863 307.283 136.612 307.871 134.116Z" fill="#F0B689"/>
<path d="M668.057 872.594L658.276 813.312C657.246 807.066 654.531 801.506 650.673 797.017C648.64 801.675 647.035 805.759 646.107 808.96C646.877 809.75 647.564 810.647 648.221 811.527C651.857 816.396 655.694 822.331 653.814 828.11C653.151 830.148 651.799 831.977 651.567 834.108C651.269 836.839 652.868 839.64 652.059 842.265C651.877 842.855 651.61 843.362 651.275 843.804C651.287 843.917 651.3 844.03 651.311 844.142C652.311 853.884 653.296 863.858 650.937 873.363C650.795 873.934 650.639 874.499 650.476 875.063L667.078 869.947L668.492 879.419C668.569 877.17 668.435 874.887 668.057 872.594Z" fill="#401E37"/>
<path d="M569.1 912.62L558.931 879.548C561.903 891.737 565.332 903.539 569.1 912.62Z" fill="#401E37"/>
<path d="M394.624 931.42C393.177 925.204 390.744 919.237 387.499 913.745C383.034 916.984 377.545 919.324 372.38 921.259C368.421 922.742 364.007 924.165 359.932 923.801L358.825 944.691C358.389 952.915 360.678 960.501 364.812 966.722L398.194 954.427C398.043 953.612 397.89 952.797 397.758 951.979C396.648 945.133 396.196 938.174 394.624 931.42Z" fill="#401E37"/>
<path d="M544.639 846.599L536.936 816.184L532.611 799.108C532.357 798.106 532.066 797.125 531.756 796.154C523.824 771.308 497.816 756.618 472.192 763.108C445.566 769.851 429.449 796.902 436.192 823.528L445.201 859.098L445.682 860.996L447.795 869.34L448.22 871.019C449.113 874.546 450.63 877.749 452.613 880.551L455.931 891.343C455.617 888.637 455.297 886.006 454.977 883.475C457.482 886.178 460.48 888.368 463.788 889.933C469.606 892.687 476.381 893.51 483.108 891.807L523.854 881.488C530.198 879.881 535.504 876.275 539.281 871.516C544.41 865.053 546.709 856.461 544.922 847.842C544.835 847.426 544.744 847.012 544.639 846.599Z" fill="#401E37"/>
<path d="M735.244 369.345L733.912 361.189C733.899 361.109 733.876 361.033 733.861 360.954C732.455 353.151 725.054 347.887 717.2 349.17L713.855 349.716C716.641 353.37 718.727 357.65 719.846 362.413L721.031 367.456C721.467 369.311 721.731 371.165 721.849 373.005C721.883 373.536 721.909 374.067 721.918 374.595C721.992 378.761 721.279 382.825 719.903 386.618L723.3 386.045C726.435 385.516 729.155 384.011 731.229 381.905C734.379 378.707 736.022 374.111 735.244 369.345Z" fill="#36132C"/>
<path d="M586.351 409.159L604.982 406.014L611.605 404.896C611.173 404.232 610.769 403.547 610.382 402.848C609.889 401.957 609.434 401.04 609.02 400.095C608.204 398.236 607.537 396.282 607.056 394.235L605.871 389.192C604.789 384.587 604.713 379.983 605.493 375.604C606.03 372.589 606.976 369.684 608.282 366.959L599.577 368.381L595.381 372.861L589.876 378.738L570.754 399.152L565.84 404.398L556.69 414.166L570.308 411.868L586.351 409.159Z" fill="#36132C"/>
<path d="M539.279 871.514C535.502 876.273 530.196 879.879 523.852 881.486L483.106 891.805C476.379 893.509 469.604 892.685 463.786 889.931L507.095 1070.21C512.107 1091.08 533.084 1103.93 553.949 1098.92C574.813 1093.9 587.664 1072.93 582.652 1052.06L539.279 871.514Z" fill="#36132C"/>
<path d="M237.178 462.232L231.661 459.065L226.903 459.662L222.163 460.256L217.686 460.817L215.522 461.088L205.357 462.363C206.6 463.814 207.729 465.373 208.717 467.036C210.708 470.385 212.15 474.137 212.891 478.195L213.767 482.994L213.821 483.291C214.642 487.787 214.524 492.236 213.615 496.441C213.758 496.547 213.896 496.66 214.035 496.771C214.931 497.484 215.753 498.289 216.479 499.183L223.645 498.323L236.985 496.722L286.833 490.74L281.011 487.398L237.178 462.232Z" fill="#36132C"/>
<path d="M667.078 869.946L650.476 875.062L605.199 889.014L598.266 866.467L596.217 859.803L593.417 850.695L589.256 837.161L588.156 833.584C600.851 824.193 607.86 809.782 605.161 795.43L603.706 787.69L594.876 740.73L587.154 699.659L580.128 662.291L576.152 641.144L575.714 638.816L567.373 594.452L567.238 593.732L559.186 550.909L552.946 517.721L551.794 511.596C548.955 496.499 541.639 483.256 531.172 472.574C523.309 464.55 513.667 457.973 502.808 453.141C481.976 443.873 456.667 441.032 430.841 446.748L416.398 449.945L399.289 453.732L388.039 456.222C363.694 461.611 342.976 473.701 328.137 489.473C313.854 504.652 305.025 523.241 303.655 542.556C303.104 550.331 303.754 558.223 305.752 566.057L314.222 599.254L320.977 625.73L325.687 644.19L328.299 654.428L333.022 672.938L335.396 682.24L367.924 809.722L375.116 837.91L377.154 845.898C379.332 854.436 384.73 861.495 392.063 866.45C396.416 869.391 401.449 871.591 406.904 872.911L410.158 883.495L428.532 943.251L398.193 954.425L364.811 966.719L364.541 966.818L385.15 995.958L462.992 970.247C472.728 966.694 477.741 955.922 474.188 946.186L467.835 928.775L467.48 928.906L455.93 891.341L452.612 880.549C450.629 877.747 449.113 874.544 448.219 871.017L447.794 869.338L445.681 860.994L445.2 859.096L436.191 823.526C429.448 796.901 445.566 769.85 472.191 763.106C497.815 756.616 523.824 771.306 531.755 796.152C532.065 797.123 532.357 798.105 532.61 799.106L536.935 816.182L544.638 846.597C544.743 847.011 544.834 847.425 544.919 847.839L548.908 846.956L558.929 879.547L569.098 912.619L569.349 913.434C569.641 914.382 569.998 915.292 570.41 916.163L571.246 918.868C574.305 928.77 584.813 934.317 594.715 931.258L672.257 904.654L668.49 879.417L667.078 869.946Z" fill="#36132C"/>
<path d="M314.871 109.847C316.423 110.588 318.155 111.015 319.99 111.015C323.041 111.015 325.815 109.859 327.923 107.973C330.362 105.791 331.905 102.63 331.905 99.0996C331.905 97.8656 331.717 96.6746 331.369 95.5556C330.53 95.5986 329.677 95.5645 328.807 95.4325C324.742 94.8135 320.901 92.0816 316.868 92.8816C312.814 93.6856 310.566 97.5155 308.285 101.288C308.989 105.08 311.489 108.233 314.871 109.847Z" fill="#36132C"/>
<path d="M374.687 102.903C376.544 104.097 378.748 104.798 381.119 104.798C384.021 104.798 386.679 103.758 388.746 102.034C391.365 99.8476 393.034 96.5616 393.034 92.8826C393.034 92.8056 393.024 92.7306 393.022 92.6536C390.256 92.6036 387.436 92.7546 384.706 92.4226C379.772 91.8236 375.065 89.6386 370.37 87.7676C369.63 89.3196 369.204 91.0496 369.204 92.8826C369.204 97.0916 371.392 100.783 374.687 102.903Z" fill="#36132C"/>
<path d="M366.084 125.175C365.865 122.364 364.132 119.998 362.141 118.016C359.475 115.364 357.159 112.498 354.783 109.545C353.785 108.305 352.77 107.048 351.471 106.127C350.172 105.207 348.53 104.651 346.974 104.989C345.052 105.407 343.642 107.087 342.808 108.868C341.974 110.65 341.568 112.605 340.769 114.402C339.426 117.424 337.051 119.846 335.181 122.574C334.328 123.818 332.993 126.224 332.571 128.413C332.216 130.257 332.509 131.947 334.291 132.656C334.815 132.864 335.356 133.029 335.907 133.149C336.941 133.374 338.009 133.443 339.063 133.347C339.943 133.267 340.815 133.075 341.698 133.089C344.817 133.141 347.577 135.736 350.678 135.395C354.366 134.989 356.785 130.614 360.494 130.527C361.438 130.505 362.396 130.774 363.315 130.558C365.035 130.152 365.939 128.211 366.079 126.45C366.116 126.015 366.116 125.59 366.084 125.175Z" fill="#E6686A"/>
<path d="M335.397 682.24L333.023 672.938C322.838 668.014 312.6 661.889 301.359 662.541C280.066 663.775 263.309 688.917 242.629 683.742C228.058 680.095 220.597 662.778 206.322 658.124C198.312 655.513 189.595 657.38 181.177 656.901C178.383 656.742 175.458 656.14 172.76 655.104C169.465 653.839 166.513 651.926 164.557 649.377C163.289 647.726 162.436 645.81 162.186 643.629C161.854 640.745 162.647 637.751 161.845 634.96C159.915 628.239 151.039 627.187 144.551 624.452C143.906 624.18 143.278 623.876 142.663 623.547C139.651 621.935 137.023 619.653 134.932 616.961C132.116 619.781 129.313 622.616 126.536 625.476C123.174 628.94 119.837 632.43 116.529 635.948C90.0491 664.107 65.2501 693.928 41.1821 724.193C40.5811 724.949 39.9801 725.708 39.3801 726.466C27.2581 741.772 15.3241 757.644 7.87011 775.521C6.58011 778.615 5.42011 781.768 4.42111 784.989C1.96111 792.921 0.492109 801.319 1.63711 809.544C4.08811 827.165 18.3161 841.316 34.4591 848.791C50.6031 856.266 68.6441 858.273 86.2871 860.555C94.2961 861.591 102.292 862.704 110.278 863.885C181.242 874.378 251.311 890.352 321.059 907.351C324.399 908.165 327.735 908.989 331.074 909.807C329.838 908.432 328.739 906.875 327.729 905.372C325.051 901.384 322.247 896.687 323.592 892.075C324.59 888.653 327.68 886.202 328.934 882.865C328.969 882.772 328.993 882.677 329.025 882.583C316.089 883.514 304.773 870.165 291.975 872.478C291.294 872.601 290.626 872.771 289.964 872.968C270.861 863.526 254.698 844.769 233.791 847.151C225.818 848.06 217.921 852.139 210.129 850.219C199.584 847.621 194.537 835.564 185.507 829.531C173.17 821.287 155.615 825.575 142.993 817.775C136.069 813.496 131.977 806.517 128.372 799.029C128.103 798.444 127.827 797.862 127.543 797.284C124.513 790.826 121.701 784.125 117.658 778.538C117.483 777.95 117.331 777.355 117.209 776.749C115.211 766.842 121.183 757.258 123.211 747.357C125.109 738.091 124.371 726.676 132.196 721.362C135.75 718.949 140.651 718.275 143.07 714.727C146.246 710.069 143.156 703.693 144.162 698.145C145.434 691.131 152.846 687.054 159.747 685.267C161.579 684.793 164.019 684.123 166.664 683.258C172.541 684.571 178.544 685.477 184.442 686.216C191.931 687.155 199.704 688.005 206.193 691.859C212.683 695.713 217.505 703.544 215.335 710.773C224.641 712.737 235.91 716.712 237.079 726.151C238.24 735.526 228.339 742.3 224.956 751.12C223.047 756.097 223.296 761.619 222.184 766.833C220.463 774.899 215.31 782.175 208.271 786.473C214.506 785.379 221.103 784.313 227.02 786.562C230.945 788.054 234.199 790.879 237.872 792.914C248.117 798.59 260.999 797.645 271.844 793.221C276.222 791.435 280.336 789.14 284.287 786.556C265.006 779.977 246.313 773.59 237.622 770.481C265.176 735.055 306.105 707.775 335.397 682.24Z" fill="#7B122E"/>
<path d="M592.696 501.341C598.6 502.765 603.608 506.059 608.39 509.843C606.272 474.741 588.508 442.432 570.309 411.867L556.691 414.165L541.003 430.913C538.242 433.861 535.273 436.565 532.13 439.019C532.151 439.113 532.177 439.206 532.197 439.301C534.586 450.381 534.019 461.705 531.173 472.573C541.64 483.255 548.956 496.499 551.795 511.595L552.947 517.72C553.533 517.127 554.123 516.539 554.721 515.96C564.866 506.124 578.906 498.014 592.696 501.341Z" fill="#7B122E"/>
<path d="M510.111 335.327C508.039 333.773 508.039 332.737 508.039 332.737C518.36 316.24 525.969 298.707 530.989 280.502C536.305 285.471 541.769 290.334 546.813 295.515C559.567 308.617 569.831 324.125 576.969 340.957L596.551 320.053C588.363 320.752 579.613 317.019 572.694 312.066C567.348 308.239 562.338 303.446 560.174 297.238C558.981 293.818 558.716 290.145 557.762 286.651C554.884 276.106 545 268.157 534.284 266.616C531.458 266.21 528.574 266.242 525.745 266.799C523.526 267.236 521.369 267.941 519.204 268.609C516.72 265.791 514.401 262.851 512.319 259.734C501.976 288.773 495.714 320.802 473.198 341.497C485.387 341.755 495.753 351.034 501.741 361.654C507.729 372.274 510.439 384.377 514.817 395.755C515.852 398.444 516.983 401.098 518.16 403.737L546.351 373.643C536.378 359.441 525.227 346.651 510.111 335.327Z" fill="#7B122E"/>
<path d="M240.686 499.795C239.458 498.804 238.217 497.779 236.987 496.722L223.647 498.323C224.631 502.063 225.182 505.639 222.942 508.596C218.145 514.929 225.911 518.571 220.526 524.412C216.703 528.559 199.167 526.561 198.383 532.147C197.208 540.516 189.266 546.648 180.993 548.376C175.532 549.517 169.944 549.136 164.408 548.2C163.406 551.739 162.414 555.281 161.445 558.83C161.138 559.953 160.836 561.086 160.536 562.222C161.786 561.112 163.347 560.175 165.417 559.493C171.938 557.344 189.822 557.261 195.816 559.699C198.893 560.95 201.334 563.074 203.524 565.541C203.949 566.019 204.362 566.513 204.77 567.013C208.328 571.372 211.382 576.416 215.779 579.605C224.987 586.282 237.771 584.503 248.743 581.401C255.112 579.6 261.65 577.445 268.173 576.512C272.887 575.838 277.595 575.8 282.225 577.001C290.888 579.249 297.816 585.495 304.534 591.364C307.658 594.093 310.857 596.806 314.223 599.253L305.753 566.056C303.754 558.222 303.104 550.33 303.656 542.555C281.064 531.394 260.414 515.716 240.686 499.795Z" fill="#7B122E"/>
<path d="M397.394 283.003C395.011 283.992 392.558 284.824 390.034 285.467C387.721 286.056 385.391 286.481 383.049 286.772C368.943 288.528 354.382 285.298 340.395 281.996C326.94 278.819 313.087 275.391 302.013 267.115C285.412 254.707 278.04 233.883 269.098 215.186C262.513 201.419 253.262 187.315 240.653 179.656C240.652 179.655 240.65 179.654 240.648 179.653C240.243 179.407 239.836 179.168 239.424 178.936C219.606 191.43 200.101 203.583 181.406 210.053C187.884 218.705 198.595 228.059 195.78 236.92C196.069 237.078 196.354 237.246 196.629 237.435C200.041 239.787 201.457 244.028 203.328 247.726C208.842 258.626 219.349 265.963 229.443 272.842C229.936 273.178 230.432 273.515 230.931 273.851C230.992 273.892 231.053 273.933 231.114 273.973C231.554 274.269 231.995 274.565 232.439 274.859C232.516 274.91 232.593 274.959 232.67 275.01C233.099 275.293 233.529 275.575 233.962 275.854C234.051 275.911 234.141 275.967 234.231 276.024C234.652 276.294 235.074 276.562 235.499 276.825C235.603 276.889 235.708 276.952 235.812 277.016C236.224 277.269 236.638 277.521 237.053 277.767C237.169 277.835 237.285 277.901 237.401 277.969C237.806 278.206 238.212 278.44 238.621 278.668C238.752 278.741 238.884 278.811 239.016 278.883C239.411 279.099 239.806 279.314 240.205 279.521C240.354 279.598 240.503 279.671 240.652 279.747C241.034 279.941 241.417 280.133 241.803 280.316C241.848 280.337 241.892 280.361 241.938 280.383C242.079 280.449 242.221 280.509 242.363 280.574C242.694 280.726 243.024 280.878 243.358 281.021C243.556 281.106 243.756 281.185 243.955 281.267C244.281 281.401 244.607 281.536 244.936 281.662C245.149 281.743 245.365 281.816 245.579 281.894C245.896 282.008 246.213 282.124 246.532 282.229C246.766 282.306 247.003 282.373 247.238 282.444C247.541 282.536 247.844 282.632 248.15 282.714C248.41 282.785 248.674 282.843 248.936 282.906C249.221 282.975 249.504 283.049 249.791 283.11C250.085 283.172 250.382 283.219 250.678 283.272C250.937 283.318 251.195 283.371 251.456 283.41C251.808 283.462 252.163 283.496 252.518 283.533C252.727 283.555 252.934 283.587 253.144 283.604C253.712 283.65 254.283 283.678 254.859 283.685C258.781 283.732 262.736 282.817 266.599 283.502C280.315 285.938 286.324 306.645 300.248 306.228C304.382 306.104 308.149 303.984 312.064 302.648C331.185 296.119 353.077 308.393 372.048 301.44C379.11 298.852 384.969 293.835 390.661 288.918C392.913 286.971 395.175 285.011 397.394 283.003ZM234.464 184.49C236.451 182.858 238.439 181.227 240.427 179.595C240.451 179.65 240.474 179.705 240.499 179.759L234.464 184.49Z" fill="#7B122E"/>
<path d="M25.9251 536.557C44.9041 545.022 64.6251 546.078 84.7841 546.505C81.2371 534.388 79.6591 518.589 70.2611 517.188C67.6921 516.805 64.8321 516.795 62.8981 515.061C61.2541 513.587 60.7451 511.257 60.3491 509.085C57.8881 495.569 59.4581 479.659 66.2501 467.306C76.0111 449.551 87.8161 455.927 103.719 455.094C111.273 454.698 116.466 448.222 122.509 443.347C124.319 441.887 126.204 440.568 128.254 439.602C133.899 436.939 140.427 437.114 146.491 435.635C148.67 435.104 150.769 434.358 152.823 433.491L114.805 417.474C92.6681 416.781 70.3701 431.584 63.4781 452.827C62.2151 456.721 61.3681 460.868 58.9721 464.187C53.5981 471.631 41.5991 473.376 38.6651 482.075C37.7941 484.658 37.6201 487.946 35.2071 489.215C34.1761 489.757 32.9541 489.768 31.7901 489.716C25.2491 489.425 18.7841 487.544 13.1071 484.282C8.87611 481.851 4.9651 478.628 0.438102 476.971C-0.0178978 484.822 -0.127887 492.493 0.155113 499.896C0.445113 507.475 1.25711 515.381 5.36611 521.756C10.0091 528.959 18.0991 533.066 25.9251 536.557Z" fill="#7B122E"/>
<path d="M160.76 547.513C159.138 547.179 157.524 546.815 155.923 546.445C154.297 546.069 151.516 547.537 148.374 549.721C151.946 549.475 155.486 548.951 158.961 548.031C159.566 547.872 160.164 547.696 160.76 547.513Z" fill="#7B122E"/>
<path d="M152.144 391.794C148.35 375.958 170.943 355.764 193.258 337.12C194.457 340.258 195.858 343.323 197.503 346.288C203.304 356.742 225.759 369.52 227.446 379.281C228.688 386.469 221.749 400.655 214.655 413.811C204.2 409.639 188.105 407.6 174.832 404.513L211.338 419.893L226.463 426.265L238.624 431.389C245.004 420.073 250.981 408.53 256.523 396.78C258.356 392.894 260.186 388.715 259.605 384.458C258.735 378.083 252.895 373.747 247.549 370.167C243.607 367.528 239.666 364.888 235.724 362.249C223.119 353.809 211.962 342.265 201.844 329.975C205.154 327.219 208.379 324.517 211.424 321.888C208.018 321.214 204.613 320.667 201.166 320.942C199.25 321.095 197.376 321.511 195.544 322.088C193.494 322.734 191.5 323.589 189.572 324.551C189.341 324.666 189.108 324.778 188.879 324.896C162.783 338.321 146.68 367.872 122.19 382.334L154.547 395.966C153.349 394.725 152.516 393.346 152.144 391.794Z" fill="#7B122E"/>
<path d="M682.849 702.151C678.781 698.473 674.11 695.47 668.833 696.018C664.883 696.428 661.435 698.816 657.627 699.945C651.159 701.863 643.677 699.764 639.149 694.763C638.617 694.175 638.076 693.522 637.314 693.301C635.299 692.718 634.01 695.285 632.896 697.062C630.157 701.433 624.546 702.592 619.507 704.382C619.111 703.386 618.566 702.427 617.848 701.521C615.002 697.929 609.961 696.095 608.301 691.823C607.114 688.768 608.03 685.297 607.401 682.081C605.937 674.601 596.692 670.338 595.812 662.767C595.736 662.115 595.727 661.48 595.771 660.859C601.599 661.096 607.428 661.335 613.256 661.572C617.609 661.749 622.264 661.85 625.955 659.534C628.942 657.66 630.824 654.482 633.339 652.01C636.606 648.799 641.031 646.794 645.599 646.452C650.618 646.077 655.556 647.635 660.548 648.276C662.909 648.579 665.332 648.648 667.733 648.465C660.431 635.004 651.788 621.655 644.922 604.711C644.579 599.605 644.129 594.45 643.288 589.442C639.385 596.478 633.185 602.155 625.361 604.516C622.291 605.442 618.881 606.036 616.688 608.357C615.453 609.664 614.764 611.371 614.01 612.999C611.262 618.937 607.224 624.191 602.337 628.539C595.029 635.041 585.818 639.5 576.152 641.142L580.128 662.289L587.154 699.656L594.876 740.728L603.706 787.688L605.161 795.427C607.859 809.779 600.851 824.191 588.156 833.581L589.256 837.159C589.4 837.082 589.54 836.998 589.671 836.906C591.413 835.68 592.407 833.674 593.816 832.077C598.822 826.403 608.268 826.576 613.327 820.95C614.87 819.235 615.874 817.102 617.307 815.294C621.871 809.538 629.823 807.996 637.078 806.843C639.098 806.522 641.224 806.209 643.144 806.914C644.291 807.335 645.25 808.08 646.107 808.958C647.035 805.757 648.64 801.675 650.673 797.016C661.295 772.677 683.675 732.563 683.137 719.714C682.894 713.897 682.812 708.038 682.849 702.151Z" fill="#7B122E"/>
<path d="M406.905 872.911C401.45 871.591 396.417 869.391 392.064 866.45C390.312 874.741 394.868 883.569 396.35 892.242C396.915 895.551 397.035 898.837 396.181 902.062C394.876 906.99 391.624 910.751 387.499 913.744C390.744 919.236 393.177 925.204 394.624 931.419C396.196 938.173 396.648 945.132 397.757 951.977C397.89 952.795 398.042 953.609 398.193 954.424L428.532 943.25L410.158 883.495L406.905 872.911Z" fill="#7B122E"/>
<path d="M651.275 843.804C648.97 846.847 643.406 846.768 639.635 848.724C634.776 851.245 632.337 857.809 626.942 858.734C623.262 859.365 619.72 857.011 615.992 856.804C609.13 856.422 604.186 862.968 598.267 866.466L605.2 889.013L650.477 875.06C650.641 874.497 650.797 873.932 650.938 873.361C653.297 863.856 652.312 853.882 651.312 844.14C651.3 844.03 651.288 843.916 651.275 843.804Z" fill="#7B122E"/>
<path d="M720.667 374.503C718.277 374.476 715.951 375.226 713.701 376.034C709.342 377.6 705.077 379.427 700.928 381.485C697.809 383.032 694.753 384.706 691.78 386.519C690.322 387.408 688.391 388.318 687.043 387.27C686.384 386.758 686.092 385.908 685.542 385.281C685.411 385.132 685.269 385.005 685.122 384.889C683.968 383.978 682.356 384.047 680.814 384.581C679.91 384.894 679.031 385.361 678.285 385.887C676.104 387.424 673.689 389.404 671.103 388.745C670.138 388.499 669.374 387.935 668.695 387.228C667.043 385.507 665.915 382.918 663.732 381.858C661.991 381.012 659.944 381.318 658.01 381.416C654.052 381.618 650.048 380.848 646.447 379.193C645.301 378.666 644.094 377.931 643.744 376.719C642.983 374.085 646.684 372.143 646.933 369.413C647.284 365.568 641.54 364.815 638.868 361.964C638.601 361.679 638.363 361.373 638.167 361.041C637.018 359.099 637.489 356.638 638.065 354.456C638.758 351.832 639.555 349.205 640.132 346.553L679.364 337.334C691.708 334.434 704.058 338.735 712.017 347.501C712.855 334.14 710.09 320.632 704.467 308.388C701.549 302.035 697.868 296.023 693.518 290.551C690.994 291.031 688.392 291.292 685.729 291.292C681.475 291.292 677.373 290.649 673.51 289.459L643.652 321.334L599.581 368.381L608.286 366.959C606.98 369.684 606.034 372.589 605.497 375.604C604.717 379.983 604.793 384.588 605.875 389.192L607.06 394.235C607.541 396.282 608.208 398.236 609.024 400.095C609.438 401.039 609.893 401.957 610.386 402.848C610.772 403.547 611.177 404.232 611.609 404.896L604.986 406.014C603.832 408.975 603.553 412.309 604.395 415.625C606.541 424.083 615.138 429.2 623.596 427.054L642.513 422.254C644.915 421.644 647.047 420.513 648.82 419.014L695.957 407.938C699.924 407.006 703.559 405.406 706.775 403.287C709.432 401.537 711.799 399.429 713.831 397.051C716.462 393.97 718.523 390.433 719.908 386.617C721.284 382.824 721.996 378.76 721.923 374.594C721.504 374.544 721.087 374.507 720.667 374.503Z" fill="#7B122E"/>
<path d="M97.7191 499.224L98.6491 504.32C101.989 522.614 119.528 534.736 137.822 531.396L171.144 525.312L175.717 524.478C178.831 526.684 182.748 527.776 186.833 527.258L192.27 526.57L206.194 524.805C213.335 523.9 218.751 518.36 219.814 511.589C217.499 510.953 214.832 511.191 212.557 512.067C210.421 512.89 208.391 514.183 206.106 514.301C205.334 514.341 204.527 514.159 203.809 513.82C207.924 509.928 211.019 505.044 212.762 499.629C212.884 499.251 212.998 498.87 213.106 498.487C213.297 497.812 213.468 497.129 213.617 496.44C214.526 492.235 214.644 487.787 213.823 483.291L213.769 482.994C211.451 481.779 208.857 481.154 206.237 481.357C203.572 481.564 201.038 482.566 198.581 483.62C192.851 486.078 187.274 488.889 181.887 492.029C181.013 492.538 180.142 493.054 179.279 493.581C178.522 494.042 177.728 494.523 176.844 494.573C175.303 494.661 173.991 493.437 172.47 493.174C170.239 492.788 168.262 494.477 166.379 495.734C163.885 497.4 160.767 498.463 157.875 497.669C154.983 496.875 152.665 493.723 153.566 490.862C150.059 496.103 141.876 496.897 136.8 493.156C131.724 489.415 129.879 482.255 131.48 476.156C129.029 475.553 126.864 474.208 125.128 472.422C123.415 470.661 122.12 468.471 121.382 466.142C120.769 464.207 120.675 462.564 120.869 461.021C104.806 465.983 94.6241 482.275 97.7191 499.224Z" fill="#7B122E"/>
<path d="M256.606 100.531C256.272 99.5015 256.059 98.4385 256.014 97.3475C255.866 93.7465 257.913 89.8985 261.356 88.8345C263.123 88.2885 264.984 88.5065 266.849 88.6845C268.287 88.8225 269.726 88.9365 271.125 88.6595C275.664 87.7595 278.408 83.0995 279.757 78.6735C281.107 74.2475 281.743 69.4145 284.58 65.7585C288.789 60.3335 296.372 59.2625 303.355 59.7145C304.037 59.7585 304.716 59.8125 305.383 59.8825C312.878 60.6775 320.737 62.4225 327.737 59.6285C329.813 58.7995 331.707 57.6045 333.581 56.3695C330.561 54.5435 326.745 54.2475 323.243 53.4255C319.828 52.6235 316.428 51.2475 313.033 50.2215C309.326 49.1015 305.623 48.4015 301.912 49.3445C291.03 52.1095 285.806 67.6925 274.579 67.5905C269.34 67.5435 264.705 63.6525 262.439 58.9295C261.221 56.3925 260.578 53.6525 260.271 50.8495C259 50.4065 257.754 49.8955 256.548 49.3015C251.938 47.0315 247.901 43.7245 244.619 39.7695C241.191 42.7405 236.756 44.5725 231.891 44.6875C230.789 53.3465 232.027 62.4125 235.153 70.6005C239.574 82.1835 247.403 92.1485 256.606 100.531Z" fill="#7B122E"/>
<path d="M745.852 333.833C740.541 322.098 720.735 327.426 712.072 317.893C710.132 315.759 708.948 313.038 707.09 310.833C706.299 309.894 705.418 309.083 704.466 308.389C710.09 320.633 712.855 334.141 712.016 347.502C712.659 348.21 713.271 348.95 713.854 349.716L717.199 349.17C725.053 347.887 732.455 353.152 733.86 360.954C735.63 358.516 737.686 356.202 739.605 353.956C744.433 348.307 748.916 340.602 745.852 333.833Z" fill="#FDF6F8"/>
<path d="M205.357 462.362L215.522 461.088C216.03 460.868 216.56 460.703 217.1 460.57L196.457 451.872L152.822 433.49C150.768 434.358 148.669 435.103 146.49 435.634C140.426 437.113 133.898 436.938 128.253 439.601C126.204 440.568 124.318 441.886 122.508 443.346C123.906 449.405 124.101 452.524 131.946 455.161C134.652 456.071 137.43 456.758 140.246 457.228L173.718 451.116C181.439 449.706 189.021 451.059 195.463 454.46C199.218 456.444 202.581 459.121 205.357 462.362Z" fill="#FDF6F8"/>
<path d="M634.941 542.098C634.399 539.328 634.896 536.423 634.261 533.672C632.875 527.665 626.781 524.191 621.726 520.604C617.116 517.333 612.851 513.375 608.39 509.844C603.608 506.06 598.601 502.765 592.696 501.341C578.906 498.014 564.866 506.124 554.719 515.96C554.121 516.539 553.531 517.126 552.945 517.719L559.185 550.908L567.237 593.732L567.372 594.451C572.42 593.415 576.947 590.379 578.74 585.443C579.434 583.534 579.813 581.423 580.301 579.395C580.982 576.564 581.873 573.897 584.134 572.185C585.217 571.365 586.49 570.885 587.791 570.46C588.52 570.222 589.257 570 589.975 569.747C599.059 566.539 605.054 556.848 604.927 547.336C604.909 545.95 604.764 544.568 604.476 543.21C604.25 542.145 603.941 541.093 603.538 540.068C604.244 539.407 605.04 538.957 605.889 538.681C609.633 537.464 614.439 539.687 617.44 542.718C621.122 546.436 623.966 551.358 628.819 553.314C631.79 554.512 635.299 554.477 637.853 556.412C640.013 558.048 641.023 560.751 641.928 563.305C643.712 568.34 645.496 573.375 647.279 578.411C648.834 570.222 647.562 561.596 642.699 554.71C639.826 550.637 635.894 546.978 634.941 542.098Z" fill="#FDF6F8"/>
<path d="M314.222 599.253C310.857 596.807 307.657 594.094 304.533 591.364C297.815 585.495 290.887 579.248 282.224 577C277.593 575.799 272.886 575.837 268.172 576.512C261.648 577.445 255.111 579.6 248.742 581.401C237.77 584.503 224.986 586.281 215.778 579.604C211.381 576.415 208.327 571.372 204.769 567.013C204.361 566.513 203.947 566.019 203.523 565.541C203.219 566.059 202.923 566.578 202.641 567.098C201.605 569.012 200.813 570.959 200.996 573.104C201.332 577.045 204.865 579.936 206.174 583.669C209.357 592.744 198.713 601.188 198.603 610.805C198.577 613.073 199.113 615.431 199.794 617.783C201.199 622.634 203.229 627.463 202.28 631.44C204.254 630.34 206.197 629.129 208.344 628.474C220.007 624.916 229.168 637.977 239.005 645.182C240.568 646.327 242.504 647.387 244.355 646.817C245.645 646.42 246.566 645.32 247.53 644.375C250.889 641.082 255.077 639.449 259.639 638.786C266.627 637.771 274.494 639.043 281.613 640.169C287.228 641.057 292.876 641.718 298.522 642.379C301.228 642.696 303.935 643.011 306.641 643.328C312.939 644.065 319.422 644.775 325.688 644.189L320.978 625.729L314.222 599.253Z" fill="#FDF6F8"/>
<path d="M431.369 127.073C430.373 125.68 429.319 113.236 427.743 112.568C427.562 112.491 427.365 112.488 427.154 112.546C425.239 113.073 422.156 118.874 418.456 124.406C416.617 127.154 414.227 129.353 411.572 131.29C406.567 134.941 400.606 137.647 395.512 141.238C387.716 146.734 387.601 147.044 382.363 139.072C381.944 138.434 381.587 137.745 381.261 137.032C379.289 132.709 378.621 127.362 374.404 125.475C372.429 124.591 370.161 124.782 368.006 124.99C367.365 125.052 366.725 125.114 366.084 125.176C366.116 125.591 366.117 126.016 366.079 126.45C365.94 128.212 365.035 130.153 363.315 130.558C362.396 130.775 361.438 130.505 360.494 130.527C356.784 130.614 354.366 134.99 350.678 135.395C347.577 135.736 344.818 133.141 341.698 133.089C340.815 133.074 339.943 133.267 339.063 133.347C338.009 133.443 336.941 133.374 335.907 133.149C335.356 133.029 334.815 132.864 334.291 132.656C332.508 131.947 332.216 130.257 332.571 128.413C331.576 128.509 330.58 128.605 329.585 128.702C329.057 128.753 328.515 128.813 327.975 128.894C328.392 129.477 328.96 130.073 329.763 130.739C332.838 133.287 333.667 138.16 331.608 141.582C330.676 143.131 329.177 144.667 329.557 146.434C329.763 147.392 330.503 148.153 330.859 149.058C330.91 149.188 330.953 149.321 330.986 149.457C331.29 150.731 330.601 152.041 329.731 153.02C328.27 154.663 326.22 155.772 324.044 156.095C322.633 156.305 321.176 156.196 319.795 156.553C319.145 156.721 318.543 156.99 317.965 157.31C316.08 158.355 314.478 160.012 312.551 161.045C311.894 161.397 311.208 161.66 310.505 161.859C306.611 162.96 302.161 161.818 298.638 159.651C298.122 159.334 297.621 158.977 297.132 158.603C296.288 157.956 295.492 157.237 294.808 156.436C294.184 156.15 293.623 155.785 293.112 155.366C288.917 151.927 288.389 144.687 288.389 144.687C287.278 136.999 284.167 131.749 279.611 128.264C276.315 129.306 272.668 128.827 270.903 125.975C270.485 125.299 270.216 124.552 270.023 123.772C264.215 122.246 257.382 121.973 249.993 122.389C236.726 123.136 224.319 130.423 211.033 130.164C199.223 129.934 188.186 123.632 179.823 115.29C177.764 113.237 175.845 111.063 174.03 108.803C173.906 110.652 173.871 112.504 173.97 114.36C174.834 130.655 186.797 145.777 202.456 150.368C210.935 152.854 219.969 152.449 228.698 153.818C239.59 155.526 250.001 160.104 258.689 166.884C258.697 166.89 258.705 166.896 258.712 166.902C258.871 167.026 259.034 167.146 259.191 167.271C261.306 168.955 263.318 170.767 265.203 172.705C270.461 178.112 274.731 184.383 278.972 190.619C285.142 199.691 291.313 208.763 297.483 217.835C301.764 224.129 306.228 230.603 312.669 234.657C319.111 238.711 328.118 239.716 334.067 234.968C336.905 232.703 338.915 229.291 342.278 227.921C347.598 225.754 354.581 229.425 359.03 225.79C359.946 225.041 360.707 224.001 361.848 223.689C362.959 223.385 364.133 223.866 365.109 224.477C373.133 229.503 372.696 241.594 378.73 248.89C381.989 252.831 386.992 255.154 389.821 259.415C395.092 267.353 390.616 278.233 384.312 285.379C383.898 285.848 383.476 286.311 383.047 286.77C385.389 286.478 387.72 286.054 390.032 285.465C392.556 284.822 395.009 283.99 397.392 283.001C411.557 277.123 423.159 265.507 431.448 252.425C454.935 215.356 457.016 163.672 431.844 127.771C431.683 127.541 431.533 127.303 431.369 127.073Z" fill="#FDF6F8"/>
<path d="M222.534 21.7935C223.84 22.3885 229.786 25.3605 231.092 24.7525C228.941 25.7535 228.861 29.0815 230.458 30.8365C231.616 32.1085 233.281 32.7085 235.012 32.9675C235.668 33.0655 236.333 33.1185 236.985 33.1345C238.035 33.1605 239.095 33.1265 240.149 33.1345C241.476 33.1455 242.792 33.2245 244.062 33.5945C245.611 34.0455 246.927 34.8725 248.056 35.9395C250.295 32.6865 251.608 28.7475 251.608 24.5005C251.608 13.3425 242.563 4.29651 231.404 4.29651C227.868 4.29651 224.546 5.20751 221.655 6.80351C224.029 10.6065 224.761 16.8445 222.534 21.7935Z" fill="#FDF6F8"/>
<path d="M273.251 103.186C274.041 105.956 272.332 109.567 274.487 111.477C276.144 112.945 278.937 111.948 280.212 110.139C281.487 108.33 281.741 106.022 282.248 103.867C283.093 100.274 284.761 96.8835 287.064 94.0005C287.865 92.9975 288.739 92.0535 289.687 91.1875C290.5 90.4445 291.492 89.7135 292.587 89.8295C293.513 89.9275 294.237 90.5955 295.029 91.1105C295.203 91.2235 295.38 91.3325 295.563 91.4225C298.483 92.8595 301.74 90.1525 303.504 87.4185C305.269 84.6845 307.031 81.3465 310.235 80.7765C310.079 84.2455 314.863 85.8385 318.136 84.6775C321.409 83.5165 324.006 80.8465 327.331 79.8455C330.357 78.9345 333.887 79.4285 336.443 77.5705C337.878 76.5265 338.77 74.8825 340.145 73.7595C342.691 71.6785 346.444 71.7725 349.532 72.9035C352.621 74.0335 355.3 76.0365 358.204 77.5815C364.752 81.0635 372.544 82.1445 379.793 80.5775C381.811 80.1415 383.875 79.5035 385.901 79.8985C390.244 80.7435 392.752 85.9385 397.117 86.6615C398.751 86.9325 400.409 86.5205 402.043 86.2545C408.508 85.2015 415.329 86.4895 420.964 89.8295C422.154 90.5345 423.299 91.3525 424.345 92.2715C425.226 93.0455 426.038 93.8915 426.736 94.8145C427.015 94.7245 427.297 94.6435 427.584 94.5775C432.046 93.5545 437.009 95.7435 441.174 93.8415C446.09 91.5965 447.042 84.5075 444.413 79.7865C441.784 75.0655 436.771 72.2435 431.902 69.8985C431.722 69.8115 431.539 69.7215 431.357 69.6315C429.245 68.5935 427.058 67.3435 426.29 65.1565C425.665 63.3765 426.154 61.3725 425.646 59.5565C424.786 56.4815 421.457 54.8935 418.442 53.8445C412.361 51.7285 405.791 50.2485 399.483 51.1125C398.322 51.2715 397.17 51.5005 396.032 51.8295C392.595 52.8235 389.42 54.6085 385.958 55.5135C371.083 59.4035 354.931 46.4605 340.687 52.2495C338.147 53.2815 335.878 54.8565 333.58 56.3705C331.706 57.6055 329.813 58.8005 327.736 59.6295C320.736 62.4235 312.877 60.6785 305.382 59.8835C304.715 59.8125 304.036 59.7595 303.354 59.7155C296.37 59.2635 288.787 60.3345 284.579 65.7595C281.743 69.4155 281.106 74.2485 279.756 78.6745C278.406 83.1005 275.663 87.7605 271.124 88.6605C269.725 88.9385 268.286 88.8235 266.848 88.6855C265.993 91.2965 265.72 93.6905 266.73 95.6555C268.269 98.6465 272.328 99.9515 273.251 103.186Z" fill="#FDF6F8"/>
<path d="M695.953 407.938L648.816 419.014C647.043 420.513 644.911 421.644 642.509 422.254L623.592 427.054C615.134 429.2 606.537 424.084 604.391 415.625C603.55 412.31 603.828 408.975 604.982 406.014L586.351 409.159C590.625 418.796 591.637 434.417 597.427 441.175C605.806 450.954 619.947 459.631 630.81 452.715C633.807 450.807 636.13 447.879 639.357 446.394C643.849 444.328 658.786 429.291 663.603 430.405C671.837 432.308 680.401 434.063 688.674 432.335C696.947 430.607 704.889 424.475 706.064 416.106C706.652 411.914 705.678 407.155 706.771 403.288C703.556 405.406 699.92 407.006 695.953 407.938Z" fill="#ECDFE8"/>
<path d="M731.23 381.905C729.156 384.01 726.436 385.516 723.301 386.045L719.904 386.618C718.519 390.434 716.458 393.971 713.827 397.052C719.615 395.732 727.05 397.272 730.623 392.555C732.938 389.498 732.274 385.781 731.23 381.905Z" fill="#ECDFE8"/>
<path d="M148.375 549.723C151.516 547.538 154.297 546.071 155.924 546.447C157.525 546.817 159.14 547.181 160.761 547.515C161.973 547.765 163.19 547.995 164.409 548.201C169.945 549.137 175.533 549.518 180.994 548.377C189.267 546.649 197.209 540.517 198.384 532.148C199.168 526.562 216.703 528.56 220.527 524.413C225.912 518.571 218.146 514.93 222.943 508.597C225.182 505.64 224.632 502.064 223.648 498.324L216.482 499.184C218.277 501.393 219.499 504.112 219.883 507.144C220.075 508.66 220.041 510.152 219.816 511.589C218.752 518.36 213.337 523.9 206.196 524.805L192.272 526.57L186.835 527.259C182.75 527.777 178.833 526.684 175.719 524.478L171.146 525.313L137.824 531.397C119.529 534.737 101.991 522.615 98.6511 504.32L97.7211 499.224C94.6261 482.275 104.809 465.983 120.87 461.021C122.145 460.627 123.452 460.296 124.797 460.05L140.248 457.229C137.433 456.759 134.654 456.072 131.948 455.163C124.103 452.526 123.908 449.406 122.51 443.347C116.467 448.223 111.274 454.699 103.72 455.094C87.8161 455.927 76.0111 449.552 66.2511 467.306C59.4601 479.659 57.8891 495.569 60.3501 509.085C60.7451 511.257 61.2551 513.587 62.8991 515.061C64.8331 516.795 67.6931 516.805 70.2621 517.188C79.6611 518.589 81.2391 534.388 84.7851 546.505C86.0451 550.809 87.5511 554.653 89.7471 557.216C98.1261 566.995 112.267 575.672 123.13 568.756C126.127 566.848 128.45 563.92 131.677 562.435C134.652 561.067 142.21 554.01 148.375 549.723Z" fill="#ECDFE8"/>
<path d="M217.686 460.817L217.101 460.57C216.56 460.703 216.031 460.867 215.523 461.088L217.686 460.817Z" fill="#ECDFE8"/>
<path d="M392.064 866.45C384.731 861.495 379.333 854.436 377.155 845.898L375.117 837.909L367.925 809.722C364.386 809.263 360.583 809.294 356.529 809.883C354.773 810.138 353.282 810.484 352.004 810.933C346.991 812.695 345.41 816.154 345.5 822.969C345.678 836.474 343.406 838.076 334.486 847.639C329.364 853.13 326.884 860.981 327.921 868.417C328.583 873.165 330.562 878.078 329.024 882.583C328.992 882.677 328.968 882.771 328.933 882.864C327.679 886.201 324.589 888.651 323.591 892.073C322.246 896.685 325.05 901.384 327.728 905.372C328.738 906.876 329.837 908.432 331.073 909.807C333.008 911.96 335.283 913.664 338.1 913.993C340.06 914.222 342.067 913.73 344.008 914.085C348.639 914.931 351.128 920.042 355.215 922.378C356.696 923.224 358.287 923.654 359.931 923.8C364.006 924.164 368.42 922.741 372.379 921.258C377.545 919.323 383.034 916.983 387.498 913.744C391.624 910.751 394.875 906.99 396.18 902.062C397.034 898.837 396.914 895.551 396.349 892.242C394.869 883.569 390.312 874.742 392.064 866.45Z" fill="#ECDFE8"/>
<path d="M646.107 808.959C645.251 808.08 644.291 807.336 643.144 806.915C641.223 806.21 639.098 806.522 637.078 806.843C629.823 807.996 621.871 809.539 617.307 815.295C615.874 817.103 614.87 819.234 613.327 820.95C608.267 826.576 598.822 826.404 593.816 832.077C592.407 833.674 591.413 835.681 589.671 836.907C589.54 837 589.4 837.082 589.256 837.159L593.417 850.693L596.217 859.801L598.266 866.465C604.185 862.967 609.129 856.421 615.991 856.803C619.719 857.01 623.261 859.364 626.941 858.733C632.336 857.808 634.775 851.243 639.634 848.723C643.405 846.767 648.969 846.846 651.274 843.803C651.609 843.361 651.877 842.854 652.058 842.264C652.867 839.639 651.268 836.838 651.566 834.107C651.798 831.976 653.15 830.147 653.813 828.109C655.693 822.33 651.856 816.395 648.22 811.526C647.564 810.646 646.877 809.749 646.107 808.959Z" fill="#ECDFE8"/>
<path d="M328.3 654.427L325.688 644.19C319.423 644.775 312.94 644.067 306.641 643.33C303.934 643.013 301.228 642.697 298.522 642.38C292.876 641.719 287.228 641.058 281.613 640.169C274.494 639.043 266.628 637.771 259.639 638.786C255.078 639.449 250.89 641.084 247.53 644.377C246.566 645.322 245.645 646.42 244.355 646.818C242.504 647.388 240.568 646.327 239.005 645.182C229.168 637.977 220.007 624.918 208.344 628.476C206.197 629.131 204.254 630.341 202.28 631.44C203.229 627.463 201.199 622.635 199.794 617.784C199.113 615.431 198.576 613.074 198.603 610.806C198.714 601.189 209.358 592.744 206.174 583.669C204.865 579.936 201.332 577.048 200.996 573.106C200.813 570.961 201.605 569.013 202.641 567.099C202.923 566.578 203.219 566.06 203.523 565.542C201.334 563.075 198.893 560.951 195.815 559.7C189.822 557.263 171.938 557.345 165.416 559.494C163.346 560.176 161.785 561.113 160.535 562.223C155.957 566.289 155.59 572.687 149.998 577.494C142.771 583.707 134.501 586.261 131.213 594C130.154 596.493 129.608 599.52 129.785 603.385C130.011 608.301 131.904 613.066 134.93 616.961C137.022 619.654 139.649 621.936 142.661 623.547C143.276 623.876 143.904 624.181 144.549 624.452C151.037 627.187 159.913 628.239 161.843 634.96C162.645 637.751 161.852 640.746 162.184 643.629C162.435 645.81 163.288 647.725 164.555 649.377C166.511 651.926 169.463 653.839 172.758 655.104C175.456 656.139 178.381 656.742 181.175 656.901C189.593 657.38 198.311 655.512 206.32 658.124C220.595 662.778 228.057 680.096 242.627 683.742C263.307 688.918 280.064 663.776 301.357 662.541C312.599 661.889 322.837 668.014 333.021 672.938L328.3 654.427Z" fill="#ECDFE8"/>
<path d="M614.009 613C614.762 611.372 615.452 609.665 616.687 608.358C618.881 606.037 622.291 605.443 625.36 604.517C633.184 602.156 639.384 596.478 643.287 589.443C645.19 586.013 646.55 582.262 647.281 578.412C645.497 573.377 643.714 568.342 641.93 563.306C641.025 560.752 640.015 558.05 637.855 556.413C635.301 554.478 631.792 554.513 628.821 553.315C623.968 551.358 621.123 546.437 617.442 542.719C614.441 539.688 609.634 537.465 605.891 538.682C605.042 538.958 604.246 539.409 603.54 540.07C603.942 541.095 604.251 542.146 604.478 543.211C604.766 544.569 604.91 545.951 604.929 547.337C605.055 556.849 599.061 566.54 589.977 569.748C589.259 570.002 588.522 570.223 587.793 570.461C586.492 570.886 585.219 571.366 584.136 572.186C581.875 573.898 580.983 576.564 580.303 579.396C579.816 581.424 579.436 583.536 578.742 585.445C576.949 590.381 572.422 593.417 567.374 594.452L575.715 638.816L576.153 641.144C585.819 639.501 595.03 635.044 602.338 628.542C607.223 624.193 611.261 618.937 614.009 613Z" fill="#ECDFE8"/>
<path d="M196.378 173.861C206.078 175.404 216.064 172.821 225.787 174.215C230.71 174.921 235.245 176.578 239.425 178.936C239.836 179.168 240.244 179.408 240.649 179.653C240.651 179.654 240.652 179.655 240.654 179.656C253.263 187.315 262.514 201.419 269.099 215.186C278.041 233.883 285.414 254.707 302.014 267.115C313.087 275.392 326.941 278.82 340.396 281.996C354.383 285.298 368.944 288.528 383.05 286.772C383.478 286.313 383.901 285.85 384.315 285.381C390.619 278.235 395.095 267.355 389.824 259.417C386.995 255.156 381.992 252.833 378.733 248.892C372.699 241.595 373.136 229.505 365.112 224.479C364.136 223.868 362.962 223.387 361.851 223.691C360.71 224.003 359.949 225.043 359.033 225.792C354.585 229.427 347.602 225.756 342.281 227.923C338.919 229.293 336.908 232.705 334.07 234.97C328.121 239.718 319.114 238.714 312.672 234.659C306.23 230.605 301.766 224.131 297.486 217.837C291.316 208.765 285.145 199.693 278.975 190.621C274.734 184.385 270.464 178.114 265.206 172.707C263.321 170.768 261.309 168.956 259.194 167.273C259.036 167.147 258.874 167.028 258.715 166.904C258.707 166.898 258.7 166.892 258.692 166.886C250.003 160.106 239.592 155.528 228.701 153.82C219.972 152.451 210.938 152.856 202.459 150.37C186.8 145.779 174.837 130.657 173.973 114.362C173.875 112.506 173.91 110.654 174.033 108.805C168.475 101.884 163.906 94.1406 159.391 86.4656C157.804 103.908 156.261 121.842 161.189 138.649C165.979 154.995 181.98 171.571 196.378 173.861Z" fill="#ECDFE8"/>
<path d="M316.43 150.567C310.225 154.733 301.373 157.747 296.836 157.043C296.097 156.928 295.424 156.718 294.808 156.436C295.492 157.236 296.288 157.956 297.132 158.603C297.621 158.978 298.122 159.334 298.638 159.651C302.161 161.817 306.611 162.96 310.505 161.859C311.207 161.66 311.894 161.398 312.551 161.045C314.478 160.012 316.081 158.355 317.965 157.31C318.543 156.989 319.146 156.721 319.795 156.553C321.176 156.195 322.633 156.304 324.044 156.095C326.219 155.772 328.269 154.663 329.731 153.02C330.601 152.041 331.29 150.732 330.986 149.457C330.953 149.32 330.91 149.188 330.859 149.058C330.503 148.153 329.763 147.391 329.557 146.434C329.177 144.667 330.676 143.131 331.608 141.582C333.667 138.16 332.837 133.287 329.763 130.739C328.96 130.074 328.392 129.477 327.975 128.894C326.043 129.183 324.14 129.755 323.011 131.281C320.974 134.034 322.716 137.836 323.219 141.223C323.679 144.329 320.674 147.717 316.43 150.567Z" fill="#ECDFE8"/>
<path d="M231.405 44.7055C231.568 44.7055 231.728 44.6945 231.891 44.6905C236.756 44.5755 241.191 42.7425 244.619 39.7725C245.919 38.6455 247.079 37.3615 248.057 35.9405C246.928 34.8725 245.612 34.0455 244.063 33.5955C242.794 33.2265 241.477 33.1465 240.15 33.1355C239.096 33.1275 238.036 33.1615 236.986 33.1355C236.334 33.1195 235.669 33.0665 235.013 32.9685C233.282 32.7095 231.617 32.1095 230.459 30.8375C228.862 29.0835 228.942 25.7545 231.093 24.7535C229.787 25.3615 223.841 22.3895 222.535 21.7945C224.762 16.8445 224.03 10.6075 221.656 6.80554C215.424 10.2465 211.201 16.8805 211.201 24.5025C211.201 35.6595 220.247 44.7055 231.405 44.7055Z" fill="#ECDFE8"/>
<path d="M424.345 92.2705C423.299 91.3515 422.154 90.5335 420.964 89.8285C415.329 86.4885 408.508 85.1995 402.043 86.2535C400.408 86.5195 398.751 86.9315 397.117 86.6605C392.752 85.9365 390.244 80.7425 385.901 79.8975C383.874 79.5025 381.811 80.1405 379.793 80.5765C372.544 82.1435 364.753 81.0625 358.204 77.5805C355.3 76.0365 352.621 74.0335 349.532 72.9025C346.443 71.7725 342.691 71.6775 340.145 73.7585C338.771 74.8815 337.879 76.5255 336.443 77.5695C333.887 79.4275 330.357 78.9325 327.331 79.8445C324.006 80.8455 321.409 83.5155 318.136 84.6765C314.863 85.8375 310.078 84.2445 310.235 80.7755C307.031 81.3445 305.269 84.6835 303.504 87.4175C301.739 90.1515 298.483 92.8585 295.563 91.4215C295.379 91.3315 295.203 91.2225 295.029 91.1095C294.237 90.5945 293.513 89.9265 292.587 89.8285C291.492 89.7125 290.5 90.4435 289.687 91.1865C288.74 92.0525 287.865 92.9965 287.064 93.9995C284.761 96.8825 283.093 100.275 282.248 103.867C281.741 106.022 281.487 108.328 280.212 110.138C278.937 111.948 276.144 112.944 274.487 111.476C272.331 109.566 274.041 105.955 273.251 103.185C272.328 99.9505 268.269 98.6455 266.731 95.6535C265.721 93.6885 265.994 91.2945 266.849 88.6835C264.985 88.5045 263.123 88.2875 261.356 88.8335C257.913 89.8975 255.867 93.7455 256.014 97.3465C256.059 98.4375 256.272 99.5005 256.606 100.53C256.883 101.382 257.241 102.211 257.669 103.01C257.612 103.376 257.574 103.746 257.566 104.118C257.488 107.521 259.498 110.887 262.532 112.431C264.188 113.274 266.141 113.636 267.483 114.921C269.743 117.084 269.266 120.702 270.024 123.772C270.217 124.552 270.486 125.299 270.904 125.975C272.668 128.827 276.315 129.305 279.612 128.264C281.279 127.737 282.858 126.829 284.055 125.629C284.437 125.246 284.792 124.842 285.132 124.427C287.961 120.971 289.46 116.521 291.939 112.756C292.632 111.703 293.446 110.667 294.575 110.105C296.207 109.294 298.158 109.623 299.947 109.272C303.856 108.506 306.087 104.922 308.286 101.286C310.567 97.5135 312.815 93.6835 316.869 92.8795C320.903 92.0795 324.743 94.8125 328.808 95.4305C329.678 95.5625 330.531 95.5975 331.37 95.5535C339.795 95.1185 346.819 86.5825 355.527 85.0885C360.621 84.2145 365.489 85.8205 370.371 87.7655C375.066 89.6365 379.773 91.8215 384.707 92.4205C387.437 92.7525 390.258 92.6015 393.023 92.6515C395.727 92.7005 398.379 92.9425 400.843 94.0195C405.343 95.9865 408.87 100.606 413.781 100.636C415.065 100.644 416.264 100.328 417.42 99.8405C418.605 99.3425 419.745 98.6635 420.881 97.9485C422.259 97.0805 423.635 96.1675 425.083 95.4765C425.623 95.2195 426.172 94.9925 426.737 94.8115C426.038 93.8905 425.226 93.0455 424.345 92.2705Z" fill="#ECDFE8"/>
<path d="M380.629 393.613C383.814 395.169 387.714 394.04 391.084 395.14C396.889 397.035 398.789 404.407 403.654 408.099C408.696 411.925 415.825 411.06 421.894 409.267C427.964 407.474 434.148 404.904 440.397 405.91C444.762 406.613 448.842 409.043 453.261 408.906C453.565 408.897 453.869 408.874 454.173 408.848C457.722 401.139 459.704 392.56 459.704 383.516C459.704 350.019 432.55 322.865 399.053 322.865C392.987 322.865 387.13 323.76 381.604 325.417C377.012 332.68 387.018 341.9 384.878 350.263C383.811 354.433 379.985 357.226 377.662 360.849C373.795 366.881 374.378 374.632 375.101 381.761C375.562 386.302 376.527 391.609 380.629 393.613Z" fill="#F2DAE0"/>
<path d="M685.727 208.407C664.833 208.407 647.558 223.872 644.705 243.978C644.433 245.897 644.283 247.856 644.283 249.85C644.283 255.475 645.409 260.836 647.439 265.726L596.549 320.053L576.967 340.957L546.35 373.642L518.159 403.736L515.275 406.814C509.568 412.906 502.251 417.113 494.115 418.978L434.656 432.609L413.924 437.362L413.798 436.722L384.686 442.44L315.481 456.034C307.29 457.643 298.895 456.78 291.202 453.539L238.623 431.388L226.462 426.264L211.337 419.892L174.831 404.512L154.548 395.967L122.191 382.335L111.565 377.858C111.672 376.645 111.737 375.42 111.737 374.18C111.737 351.291 93.1821 332.737 70.2941 332.737C65.1971 332.737 60.3171 333.662 55.8071 335.345C40.0641 341.22 28.8511 356.388 28.8511 374.18C28.8511 377.933 29.3591 381.566 30.2941 385.023C35.0611 402.651 51.1591 415.624 70.2951 415.624C78.9021 415.624 86.8961 412.999 93.5211 408.507L114.805 417.474L152.823 433.491L196.458 451.874L217.101 460.571L217.686 460.818L222.163 460.257L226.903 459.663L231.661 459.066L237.178 462.233L281.013 487.398C289.512 490.505 298.414 492.078 307.378 492.078C312.345 492.078 317.333 491.595 322.278 490.624L328.137 489.473C342.976 473.702 363.694 461.611 388.039 456.222L399.289 453.732L416.398 449.945L430.841 446.748C456.667 441.031 481.976 443.872 502.808 453.141C507.431 452.029 511.91 450.51 516.195 448.6C521.876 446.068 527.219 442.853 532.13 439.02C535.274 436.567 538.242 433.862 541.003 430.914L556.691 414.166L565.841 404.398L570.755 399.152L589.877 378.738L595.382 372.861L599.578 368.381L643.649 321.334L673.507 289.459C677.37 290.649 681.473 291.292 685.726 291.292C688.39 291.292 690.991 291.031 693.515 290.551C712.678 286.905 727.169 270.074 727.169 249.849C727.171 226.962 708.616 208.407 685.727 208.407Z" fill="#F2DAE0"/>
<path d="M485.846 640.79C484.853 630.65 483.13 619.968 480.608 609.021C476.595 591.604 471.075 575.642 464.729 562.123C461.837 555.964 458.774 550.313 455.603 545.263C443.84 526.533 430.595 516.081 419.136 518.721C411.025 520.59 404.98 528.752 401.294 541.157C401.771 542.601 402.134 544.059 402.366 545.482C402.988 549.303 403.304 553.277 404.073 557.072C404.733 560.33 405.725 563.458 407.542 566.241C410.491 570.756 415.356 573.902 417.71 578.755C419.011 581.436 419.431 584.406 419.852 587.377C420.027 588.613 420.202 589.849 420.441 591.065C422.093 599.486 426.796 606.944 431.408 614.181C436.867 622.747 443.081 631.914 452.753 635.015C455.643 635.941 458.729 636.272 461.49 637.531C465.259 639.25 468.35 642.62 471.57 645.364C472.84 646.447 474.131 647.429 475.491 648.177C477.281 649.161 479.191 649.738 481.335 649.582C483.08 649.455 484.753 648.812 486.481 648.57C486.401 647.283 486.301 645.98 486.196 644.672C486.094 643.39 485.973 642.093 485.846 640.79Z" fill="#F2DAE0"/>
<path d="M413.926 437.362L434.658 432.609C443.035 426.522 449.8 418.35 454.174 408.847C453.87 408.873 453.566 408.896 453.262 408.905C448.843 409.043 444.763 406.612 440.398 405.909C434.149 404.903 427.965 407.473 421.895 409.266C415.825 411.059 408.696 411.924 403.655 408.098C398.79 404.406 396.891 397.034 391.085 395.139C387.715 394.039 383.815 395.168 380.63 393.612C376.528 391.608 375.562 386.302 375.102 381.76C374.38 374.631 373.796 366.88 377.663 360.848C379.986 357.225 383.813 354.432 384.879 350.262C387.018 341.899 377.013 332.679 381.605 325.416C356.615 332.911 338.403 356.084 338.403 383.515C338.403 412.06 358.128 435.986 384.688 442.439L413.8 436.721L413.926 437.362Z" fill="#E3A5B5"/>
<path d="M486.482 648.572C484.754 648.814 483.081 649.457 481.336 649.584C479.191 649.74 477.282 649.163 475.492 648.179C474.132 647.431 472.841 646.448 471.571 645.366C468.351 642.621 465.26 639.251 461.491 637.533C458.73 636.274 455.644 635.943 452.754 635.017C443.081 631.916 436.868 622.749 431.409 614.183C426.797 606.946 422.094 599.489 420.442 591.067C420.203 589.851 420.028 588.615 419.853 587.379C419.432 584.407 419.012 581.438 417.711 578.757C415.357 573.905 410.492 570.759 407.543 566.243C405.726 563.461 404.734 560.333 404.074 557.074C403.305 553.278 402.988 549.305 402.367 545.484C402.135 544.06 401.773 542.602 401.295 541.159C399.833 546.078 398.746 551.669 398.046 557.796C397.277 564.523 396.978 571.903 397.173 579.766C397.53 594.172 399.543 610.198 403.372 626.817C404.229 630.535 405.156 634.184 406.143 637.76C407.931 644.237 409.922 650.465 412.077 656.386C414.951 664.281 418.117 671.631 421.483 678.301C434.737 704.57 451.08 720.287 464.844 717.116C478.302 714.015 486.077 693.601 486.812 665.194C486.948 659.909 486.841 654.349 486.482 648.572Z" fill="#E3A5B5"/>
</svg>
