<svg width="1440" height="772" viewBox="0 0 1440 772" fill="none" xmlns="http://www.w3.org/2000/svg">
<path opacity="0.4" d="M-6 740.922C96.5333 673.203 199.067 637.844 301.6 634.843C404.133 631.842 506.667 631.7 609.2 634.416C711.733 637.133 814.267 639.836 916.8 642.527C1019.33 645.218 1121.87 630.431 1224.4 598.164C1326.93 565.897 1429.47 561.682 1532 585.517V210.47C1429.47 182.933 1326.93 166.802 1224.4 162.076C1121.87 157.35 1019.33 149.661 916.8 139.01C814.267 128.358 711.733 138.416 609.2 169.184C506.667 199.951 404.133 184.14 301.6 121.752C199.067 59.3628 96.5333 35.0906 -6 48.9351V740.922Z" fill="url(#paint0_linear)"/>
<path opacity="0.4" d="M-6 689.717C96.5333 673.698 199.067 664.144 301.6 661.053C404.133 657.963 506.667 639.415 609.2 605.412C711.733 571.408 814.267 586.04 916.8 649.305C1019.33 712.571 1121.87 686.625 1224.4 571.467C1326.93 456.308 1429.47 457.918 1532 576.294V178.015C1429.47 179.002 1326.93 178.259 1224.4 175.788C1121.87 173.316 1019.33 174.423 916.8 179.108C814.267 183.793 711.733 170.72 609.2 139.888C506.667 109.056 404.133 98.1746 301.6 107.243C199.067 116.31 96.5333 118.856 -6 114.88V689.717Z" fill="url(#paint1_linear)"/>
<path opacity="0.4" d="M-6 684.748C96.5333 673.918 199.067 666.64 301.6 662.916C404.133 659.191 506.667 653.383 609.2 645.49C711.733 637.597 814.267 627.349 916.8 614.746C1019.33 602.142 1121.87 587.396 1224.4 570.506C1326.93 553.616 1429.47 560.998 1532 592.654V223.942C1429.47 214.088 1326.93 206.65 1224.4 201.627C1121.87 196.604 1019.33 181.471 916.8 156.228C814.267 130.986 711.733 119.509 609.2 121.797C506.667 124.085 404.133 119.804 301.6 108.952C199.067 98.1004 96.5333 87.1106 -6 75.9826V684.748Z" fill="url(#paint2_linear)"/>
<path opacity="0.4" d="M-6 666.4C96.5333 686.239 199.067 693.994 301.6 689.666C404.133 685.338 506.667 668.145 609.2 638.087C711.733 608.029 814.267 590.834 916.8 586.502C1019.33 582.169 1121.87 588.604 1224.4 605.807C1326.93 623.009 1429.47 606.971 1532 557.694V233.639C1429.47 200.594 1326.93 182.782 1224.4 180.205C1121.87 177.627 1019.33 177.669 916.8 180.331C814.267 182.992 711.733 170.546 609.2 142.994C506.667 115.442 404.133 99.5935 301.6 95.4499C199.067 91.3064 96.5333 94.559 -6 105.208V666.4Z" fill="url(#paint3_linear)"/>
<path fill-rule="evenodd" clip-rule="evenodd" d="M1440.35 509.746C1444.3 486.276 1435.94 462.046 1446.2 439.446C1452.29 409.806 1422.67 406.926 1403.46 398.746C1372.62 378.776 1349.75 349.176 1320.38 327.416C1298.69 320.076 1293.3 301.866 1319.19 288.246C1334.89 273.146 1352.39 263.146 1367.17 247.376C1386.3 233.556 1407.05 219.436 1422.14 200.686C1435.69 182.886 1462.14 177.306 1469.95 154.966C1467.57 130.122 1436.69 158.396 1427.92 167.906C1412.15 185.056 1393.15 198.096 1374.06 211.126C1356.42 233.636 1329.31 245.196 1308.76 264.646C1292.08 276.436 1279.01 297.636 1256.36 296.206C1232.39 300.276 1209.88 311.286 1185.75 316.516C1161.69 324.286 1143.15 341.616 1125.21 353.846C1102.77 363.226 1095.23 386.226 1085.46 405.766C1083.07 427.986 1040.47 446.396 1075.97 458.286C1084.07 453.946 1067.29 464.286 1069.2 470.866C1058.67 489.986 1025.48 505.836 1020.02 521.986C1032.42 519.636 1054.15 505.276 1069.26 493.056C1076.8 485.756 1070.11 476.396 1084.42 475.006C1103 469.326 1057.88 516.166 1101.36 505.086C1113.03 500.836 1125.35 466.426 1133.12 464.446C1141.99 485.386 1144.08 512.406 1165.14 525.346C1178.14 525.416 1186.2 517.226 1200.3 525.886C1221.65 511.306 1181.54 477.746 1208.24 470.956C1236.07 466.986 1221.41 489.006 1269.92 502.926C1290.26 510.626 1309.94 524.646 1332.78 522.746C1358.38 514.726 1386.04 517.696 1412.58 516.786C1422.08 515.556 1431.03 511.836 1440.35 509.746V509.746Z" fill="#FFCFAF" stroke="black" stroke-width="1.7769"/>
<path d="M1183.04 521.376C1186.08 519.166 1185.93 514.816 1185.93 509.746C1185.93 505.416 1186.5 502.346 1183.77 499.576C1181.72 497.506 1180.66 494.176 1178.74 491.576C1176.46 488.516 1176.66 485.366 1175.85 482.136C1174.98 478.586 1174.38 475.756 1175.14 472.686C1175.8 470.026 1178.92 467.416 1180.17 466.146C1180.55 465.766 1180.65 465.176 1180.88 464.696" stroke="black" stroke-width="1.7769"/>
<path fill-rule="evenodd" clip-rule="evenodd" d="M1428.13 511.196C1407.52 510.286 1386.06 507.706 1365.24 509.746C1344.78 514.416 1321.52 510.606 1304.66 498.256C1288.64 492.556 1273.84 484.646 1261.82 475.206C1240.93 465.496 1214.97 468.926 1190.34 464.456C1159.65 465.976 1155.19 462.226 1137.81 460.706C1118.37 462.246 1110.04 440.226 1108.16 418.926C1125 407.716 1144.87 404.716 1164.66 406.656C1183.99 404.406 1204.11 407.836 1223.3 406.566C1242.51 410.236 1267.49 405.316 1263.54 379.686C1267.54 364.056 1263.08 353.556 1262.1 336.816" fill="url(#paint4_radial)"/>
<path d="M1428.13 511.196C1407.52 510.286 1386.06 507.706 1365.24 509.746C1344.78 514.416 1321.52 510.606 1304.66 498.256C1288.64 492.556 1273.84 484.646 1261.82 475.206C1240.93 465.496 1214.97 468.926 1190.34 464.456C1159.65 465.976 1155.19 462.226 1137.81 460.706C1118.37 462.246 1110.04 440.226 1108.16 418.926C1125 407.716 1144.87 404.716 1164.66 406.656C1183.99 404.406 1204.11 407.836 1223.3 406.566C1242.51 410.236 1267.49 405.316 1263.54 379.686C1267.54 364.056 1263.08 353.556 1262.1 336.816" stroke="black" stroke-width="1.7769"/>
<path fill-rule="evenodd" clip-rule="evenodd" d="M1078.12 457.426C1078.82 453.906 1082 451.706 1084.94 450.116C1087.89 448.556 1090.32 446.226 1092.98 444.246C1095.3 442.806 1097.5 441.146 1099.34 439.126C1101.12 437.816 1103.04 436.386 1103.74 434.156C1104.22 433.156 1104.71 432.136 1105.43 431.276" fill="#6798E8"/>
<path d="M1078.12 457.426C1078.82 453.906 1082 451.706 1084.94 450.116C1087.89 448.556 1090.32 446.226 1092.98 444.246C1095.3 442.806 1097.5 441.146 1099.34 439.126C1101.12 437.816 1103.04 436.386 1103.74 434.156C1104.22 433.156 1104.71 432.136 1105.43 431.276" stroke="black" stroke-width="1.7769"/>
<path fill-rule="evenodd" clip-rule="evenodd" d="M1137.05 407.296C1142.78 403.186 1148.37 400.066 1153.56 395.066C1156.34 391.836 1159.52 390.176 1163.03 387.566C1164.21 385.776 1167.16 383.796 1168.9 385.986C1170.21 387.896 1169.72 390.746 1171.72 392.246C1174.07 394.186 1177.53 394.816 1179 397.746C1180.29 399.906 1180.02 403.516 1177.3 404.386" fill="#0000FF" fill-opacity="0.75"/>
<path d="M1137.05 407.296C1142.78 403.186 1148.37 400.066 1153.56 395.066C1156.34 391.836 1159.52 390.176 1163.03 387.566C1164.21 385.776 1167.16 383.796 1168.9 385.986C1170.21 387.896 1169.72 390.746 1171.72 392.246C1174.07 394.186 1177.53 394.816 1179 397.746C1180.29 399.906 1180.02 403.516 1177.3 404.386" stroke="black" stroke-width="1.7769"/>
<path fill-rule="evenodd" clip-rule="evenodd" d="M1119.8 454.526C1117.69 459.026 1112.82 460.886 1108.74 463.076C1104.68 465.476 1101.85 469.486 1097.84 471.976C1095.4 474.236 1092.17 475.596 1088.84 475.536C1085.53 475.726 1082.01 475.046 1078.89 476.456C1076.95 477.776 1076.31 480.176 1075.23 482.136" fill="#C12D2D"/>
<path d="M1119.8 454.526C1117.69 459.026 1112.82 460.886 1108.74 463.076C1104.68 465.476 1101.85 469.486 1097.84 471.976C1095.4 474.236 1092.17 475.596 1088.84 475.536C1085.53 475.726 1082.01 475.046 1078.89 476.456C1076.95 477.776 1076.31 480.176 1075.23 482.136" stroke="black" stroke-width="1.7769"/>
<path fill-rule="evenodd" clip-rule="evenodd" d="M1178.01 405.116L1375.67 241.626Z" fill="#00FF00" fill-opacity="0.75"/>
<path d="M1178.01 405.116L1375.67 241.626" stroke="black" stroke-width="1.7769"/>
<path fill-rule="evenodd" clip-rule="evenodd" d="M1165.08 386.226L1326.08 249.616Z" fill="#FFB380" fill-opacity="0.75"/>
<path d="M1165.08 386.226L1326.08 249.616" stroke="black" stroke-width="1.7769"/>
<path fill-rule="evenodd" clip-rule="evenodd" d="M1109.74 422.556C1113.85 420.686 1118.48 421.096 1122.87 421.156C1126.69 421.796 1129.9 424.186 1133.53 425.396C1138.33 429.086 1139.34 436.566 1136.22 441.676C1133.96 446.766 1130.27 451.356 1125.35 454.016C1121.81 455.336 1117.55 453.216 1116.18 449.726C1115.67 448.926 1115.21 448.096 1114.77 447.256" fill="#D45500" fill-opacity="0.75"/>
<path d="M1109.74 422.556C1113.85 420.686 1118.48 421.096 1122.87 421.156C1126.69 421.796 1129.9 424.186 1133.53 425.396C1138.33 429.086 1139.34 436.566 1136.22 441.676C1133.96 446.766 1130.27 451.356 1125.35 454.016C1121.81 455.336 1117.55 453.216 1116.18 449.726C1115.67 448.926 1115.21 448.096 1114.77 447.256" stroke="black" stroke-width="1.7769"/>
<path fill-rule="evenodd" clip-rule="evenodd" d="M1078.12 421.096C1079.1 420.176 1080.3 422.226 1081.31 422.556C1083.56 424.126 1085.91 426.126 1086.34 429.026C1087.07 431.946 1087.57 434.966 1087.33 437.976C1086.37 440.206 1084.16 441.436 1082.54 443.116C1080.25 445.176 1077.49 446.696 1074.47 447.326C1071.94 447.976 1069.09 448.466 1066.63 447.296C1065.26 446.256 1063.67 445.026 1061.84 445.596C1061.51 445.656 1061.19 445.726 1060.87 445.806" fill="#D45500" fill-opacity="0.75"/>
<path d="M1078.12 421.096C1079.1 420.176 1080.3 422.226 1081.31 422.556C1083.56 424.126 1085.91 426.126 1086.34 429.026C1087.07 431.946 1087.57 434.966 1087.33 437.976C1086.37 440.206 1084.16 441.436 1082.54 443.116C1080.25 445.176 1077.49 446.696 1074.47 447.326C1071.94 447.976 1069.09 448.466 1066.63 447.296C1065.26 446.256 1063.67 445.026 1061.84 445.596C1061.51 445.656 1061.19 445.726 1060.87 445.806" stroke="black" stroke-width="1.7769"/>
<path d="M1023.25 521.166C1023.32 522.226 1022.62 522.906 1022.16 523.766C1021.39 524.816 1020.67 525.906 1019.91 526.976C1019.19 528.066 1018.92 529.356 1018.52 530.576C1018.36 531.916 1018.09 533.226 1017.89 534.556C1017.72 535.796 1017.43 537.006 1017.19 538.226C1016.8 539.686 1015.96 540.956 1015.23 542.256C1014.46 543.576 1013.34 544.596 1012.27 545.656C1011.37 546.466 1010.52 547.316 1009.64 548.146C1008.62 548.996 1007.57 549.816 1006.51 550.626C1005.36 551.726 1004.1 552.696 1002.85 553.686C999.315 557.186 995.94 558.436 990.974 561.306C990.034 561.866 989.008 562.256 988.004 562.686C986.744 563.086 985.462 563.416 984.191 563.746C982.803 564.386 981.372 564.916 979.951 565.476C978.413 566.356 976.726 566.386 975.017 566.566C971.973 566.636 968.929 566.606 965.885 566.596C963.322 566.656 960.876 566.116 958.419 565.506C956.924 564.996 955.514 564.286 954.083 563.646C951.434 562.426 948.711 561.426 946.094 560.156C943.413 558.336 941.565 555.836 939.835 553.146C938.596 551.016 936.845 549.336 935.136 547.616C934.004 546.526 932.636 545.726 931.344 544.846C929.283 543.676 927.029 542.946 924.84 542.076C921.411 540.896 917.887 540.086 914.33 539.426C911.82 538.826 909.267 538.566 906.715 538.376C903.895 538.256 901.075 538.256 898.266 538.246C893.449 538.176 888.707 539.166 883.976 539.956C880.804 540.456 877.749 541.316 874.716 542.326C875.688 543.376 886.55 534.156 878.486 540.996C875.912 543.246 873.562 545.696 871.383 548.326C870.294 549.576 869.61 551.076 868.863 552.546C868.339 553.896 867.432 554.996 866.577 556.136C865.637 557.206 864.43 557.976 863.298 558.816C858.62 562.036 854.092 564.426 848.976 566.336C847.363 566.826 845.775 567.436 844.192 567.996C842.941 568.526 841.662 568.956 840.399 569.446C840.359 569.526 839.056 569.866 839 569.886L847.384 563.326C847.833 563.166 848.303 563.026 848.741 562.836C850.001 562.356 851.283 561.896 852.532 561.376C854.113 560.856 855.704 560.356 857.264 559.766C861.226 558.126 869.728 553.986 853.44 562.716C854.54 561.886 855.704 561.136 856.804 560.316C857.67 559.236 858.652 558.286 859.229 556.996C859.966 555.426 860.649 553.816 861.75 552.466C863.95 549.796 866.321 547.316 868.863 544.966C873.028 541.086 877.567 537.866 883.015 535.766C886.005 534.976 889.006 534.256 892.072 533.816C896.899 533.036 901.748 532.056 906.661 532.086C909.513 532.086 912.375 532.046 915.227 532.206C917.79 532.456 920.332 532.806 922.842 533.396C926.41 534.186 929.945 535.086 933.405 536.236C935.744 537.066 938.158 537.766 940.262 539.106C941.608 539.986 942.986 540.816 944.086 542.016C945.848 543.806 947.514 545.676 948.849 547.836C950.473 550.396 952.16 552.816 954.841 554.386C957.479 555.626 960.182 556.696 962.894 557.766C964.315 558.356 965.725 558.976 967.167 559.506C969.506 560.026 971.834 560.506 974.259 560.456C977.335 560.446 980.411 560.486 983.487 560.226C985.131 559.916 986.765 559.716 988.239 558.826C989.692 558.306 991.134 557.746 992.586 557.216C993.857 556.846 995.15 556.566 996.378 556.036C997.35 555.576 998.332 555.106 999.294 554.606C984.159 563.526 990.044 560.816 993.024 557.676C994.253 556.676 995.513 555.726 996.72 554.696C997.713 553.836 998.632 552.876 999.785 552.206C1000.66 551.366 1001.59 550.566 1002.46 549.696C1003.5 548.686 1004.67 547.776 1005.53 546.596C1006.23 545.356 1007.03 544.166 1007.61 542.876C1007.88 541.656 1008.25 540.486 1008.32 539.226C1008.58 537.886 1008.93 536.606 1008.97 535.236C1009.35 533.916 1009.58 532.556 1010.19 531.306C1010.89 530.206 1011.51 529.056 1012.44 528.116C1012.88 527.486 1013.37 526.736 1013.67 526.106L1023.25 521.166V521.166Z" fill="black"/>
<path fill-rule="evenodd" clip-rule="evenodd" d="M1108.3 421.826C1109.26 421.826 1109.26 421.826 1108.3 421.826V421.826Z" fill="#FF6600" fill-opacity="0.75" stroke="black" stroke-width="1.7769"/>
<path d="M1106.14 431.276C1105.65 431.196 1107.83 428.716 1109.02 426.916" stroke="black" stroke-width="1.7769"/>
<path d="M1410.3 213.442L1394.83 194.552L1166.37 383.159L1181.84 402.049L1410.3 213.442Z" fill="#2D1A0D"/>
<path d="M1106.51 435.452L1035.51 493.019C1035.17 493.291 1038.05 497.657 1041.94 502.77C1045.83 507.883 1049.25 511.808 1049.59 511.535L1120.59 453.969C1120.92 453.696 1118.04 449.331 1114.16 444.218C1110.27 439.104 1106.85 435.18 1106.51 435.452Z" fill="#0E3F96"/>
<defs>
<linearGradient id="paint0_linear" x1="-6" y1="45.1637" x2="1532" y2="45.1637" gradientUnits="userSpaceOnUse">
<stop stop-color="#FF00FF"/>
<stop offset="1" stop-color="#00D1FF"/>
</linearGradient>
<linearGradient id="paint1_linear" x1="-6" y1="104.151" x2="1532" y2="104.151" gradientUnits="userSpaceOnUse">
<stop stop-color="#FF00FF"/>
<stop offset="1" stop-color="#00D1FF"/>
</linearGradient>
<linearGradient id="paint2_linear" x1="-6" y1="75.9826" x2="1532" y2="75.9826" gradientUnits="userSpaceOnUse">
<stop stop-color="#FF00FF"/>
<stop offset="1" stop-color="#00D1FF"/>
</linearGradient>
<linearGradient id="paint3_linear" x1="-6" y1="93.7089" x2="1532" y2="93.7089" gradientUnits="userSpaceOnUse">
<stop stop-color="#FF00FF"/>
<stop offset="1" stop-color="#00D1FF"/>
</linearGradient>
<radialGradient id="paint4_radial" cx="0" cy="0" r="1" gradientUnits="userSpaceOnUse" gradientTransform="translate(1268.13 424.241) scale(160.896 88.3515)">
<stop stop-color="#FFCCAA"/>
<stop offset="1" stop-color="#FFCCAA" stop-opacity="0"/>
</radialGradient>
</defs>
</svg>
