<?xml version="1.0" encoding="iso-8859-1"?>
<!-- Generator: Adobe Illustrator 18.0.0, SVG Export Plug-In . SVG Version: 6.00 Build 0)  -->
<!DOCTYPE svg PUBLIC "-//W3C//DTD SVG 1.1//EN" "http://www.w3.org/Graphics/SVG/1.1/DTD/svg11.dtd">
<svg version="1.1" xmlns="http://www.w3.org/2000/svg" xmlns:xlink="http://www.w3.org/1999/xlink" x="0px" y="0px"
	 viewBox="0 0 48 48" style="enable-background:new 0 0 48 48;" xml:space="preserve">
<g>
</g>
<g>
</g>
<g>
</g>
<g>
</g>
<g>
</g>
<g>
</g>
<g>
</g>
<g>
</g>
<g>
</g>
<g>
</g>
<g>
</g>
<g>
</g>
<g>
</g>
<g>
</g>
<g>
</g>
<g>
</g>
<g>
</g>
<g>
</g>
<g>
</g>
<g>
</g>
<g>
</g>
<g>
</g>
<g>
</g>
<g>
</g>
<g>
</g>
<g>
</g>
<g>
</g>
<g>
</g>
<g>
</g>
<g>
</g>
<g>
</g>
<g>
</g>
<g>
</g>
<g>
</g>
<g>
</g>
<g>
</g>
<g>
</g>
<g>
</g>
<g>
</g>
<g>
</g>
<g>
</g>
<g>
</g>
<g>
</g>
<g>
</g>
<g>
</g>
<g>
</g>
<g>
</g>
<g>
</g>
<g>
</g>
<g>
</g>
<g>
</g>
<g>
</g>
<g>
</g>
<g>
</g>
<g>
</g>
<g>
</g>
<g>
</g>
<g>
</g>
<g>
</g>
<g>
</g>
<g>
</g>
<g>
</g>
<g>
</g>
<g>
</g>
<g>
</g>
<g>
</g>
<g>
</g>
<g>
</g>
<g>
</g>
<g>
</g>
<g>
</g>
<g>
</g>
<g>
</g>
<g>
</g>
<g>
	<g>
		<circle style="fill:#6BC45A;" cx="24" cy="24" r="24"/>
		<path id="WhatsApp_5_" style="fill:#FFFFFF;" d="M39,23.614c0,8.071-6.593,14.613-14.727,14.613c-2.582,0-5.008-0.66-7.119-1.818
			L9,39l2.658-7.841c-1.341-2.203-2.113-4.785-2.113-7.545C9.545,15.543,16.138,9,24.273,9C32.407,9,39,15.543,39,23.614z
			 M24.273,11.327c-6.828,0-12.382,5.512-12.382,12.286c0,2.688,0.876,5.178,2.358,7.203l-1.547,4.562l4.758-1.512
			c1.955,1.284,4.297,2.032,6.812,2.032c6.827,0,12.382-5.511,12.382-12.286C36.655,16.839,31.1,11.327,24.273,11.327z
			 M31.709,26.979c-0.091-0.149-0.331-0.239-0.692-0.418c-0.361-0.179-2.137-1.046-2.467-1.165
			c-0.331-0.119-0.572-0.179-0.813,0.179c-0.24,0.359-0.932,1.165-1.143,1.404c-0.211,0.239-0.421,0.269-0.782,0.09
			c-0.36-0.179-1.524-0.557-2.903-1.778c-1.073-0.949-1.798-2.121-2.008-2.48c-0.211-0.358-0.022-0.552,0.158-0.73
			c0.163-0.161,0.361-0.419,0.542-0.627c0.181-0.21,0.241-0.359,0.361-0.598c0.121-0.239,0.06-0.448-0.03-0.628
			c-0.09-0.179-0.813-1.942-1.113-2.659c-0.301-0.717-0.601-0.597-0.812-0.597c-0.211,0-0.451-0.03-0.692-0.03
			c-0.241,0-0.632,0.09-0.963,0.448c-0.331,0.359-1.263,1.225-1.263,2.987c0,1.763,1.293,3.466,1.474,3.705
			c0.18,0.238,2.497,3.973,6.166,5.408c3.671,1.434,3.671,0.956,4.333,0.895c0.661-0.059,2.135-0.866,2.437-1.703
			C31.799,27.846,31.799,27.128,31.709,26.979L31.709,26.979z"/>
	</g>
</g>
<g>
</g>
<g>
</g>
<g>
</g>
<g>
</g>
<g>
</g>
<g>
</g>
<g>
</g>
<g>
</g>
<g>
</g>
<g>
</g>
<g>
</g>
<g>
</g>
<g>
</g>
<g>
</g>
<g>
</g>
</svg>
